<?xml version="1.0" encoding="UTF-8" standalone="no"?>
<!-- Created with Inkscape (http://www.inkscape.org/) -->

<svg
   xmlns:dc="http://purl.org/dc/elements/1.1/"
   xmlns:cc="http://creativecommons.org/ns#"
   xmlns:rdf="http://www.w3.org/1999/02/22-rdf-syntax-ns#"
   xmlns:svg="http://www.w3.org/2000/svg"
   xmlns="http://www.w3.org/2000/svg"
   xmlns:xlink="http://www.w3.org/1999/xlink"
   xmlns:sodipodi="http://sodipodi.sourceforge.net/DTD/sodipodi-0.dtd"
   xmlns:inkscape="http://www.inkscape.org/namespaces/inkscape"
   width="146.44681"
   height="154.08017"
   id="svg7594"
   sodipodi:version="0.32"
   inkscape:version="0.48.1 "
   version="1.0"
   sodipodi:docname="Asi_funciona_internet.svg"
   inkscape:output_extension="org.inkscape.output.svg.inkscape">
  <defs
     id="defs7596">
    <marker
       inkscape:stockid="Arrow1Mend"
       orient="auto"
       refY="0"
       refX="0"
       id="Arrow1Mend"
       style="overflow:visible">
      <path
         id="path4517"
         d="M 0,0 L 5,-5 L -12.5,0 L 5,5 L 0,0 z "
         style="fill-rule:evenodd;stroke:#000000;stroke-width:1pt;marker-start:none"
         transform="matrix(-0.4,0,0,-0.4,-4,0)" />
    </marker>
    <filter
       id="filter32024"
       inkscape:collect="always">
      <feGaussianBlur
         id="feGaussianBlur32026"
         stdDeviation="1.8855655"
         inkscape:collect="always" />
    </filter>
    <linearGradient
       gradientTransform="translate(7.0721537,7.1504076)"
       y2="209.88333"
       x2="420.57245"
       y1="564.73291"
       x1="332.04541"
       gradientUnits="userSpaceOnUse"
       id="linearGradient28105"
       xlink:href="#linearGradient24132"
       inkscape:collect="always" />
    <filter
       id="filter17207"
       inkscape:collect="always">
      <feGaussianBlur
         id="feGaussianBlur17209"
         stdDeviation="3.9998601"
         inkscape:collect="always" />
    </filter>
    <filter
       id="filter17203"
       inkscape:collect="always">
      <feGaussianBlur
         id="feGaussianBlur17205"
         stdDeviation="4.5790492"
         inkscape:collect="always" />
    </filter>
    <filter
       id="filter17199"
       inkscape:collect="always">
      <feGaussianBlur
         id="feGaussianBlur17201"
         stdDeviation="3.4142994"
         inkscape:collect="always" />
    </filter>
    <filter
       id="filter17195"
       inkscape:collect="always">
      <feGaussianBlur
         id="feGaussianBlur17197"
         stdDeviation="2.8098285"
         inkscape:collect="always" />
    </filter>
    <filter
       id="filter17191"
       inkscape:collect="always">
      <feGaussianBlur
         id="feGaussianBlur17193"
         stdDeviation="3.7694644"
         inkscape:collect="always" />
    </filter>
    <filter
       id="filter17187"
       inkscape:collect="always">
      <feGaussianBlur
         id="feGaussianBlur17189"
         stdDeviation="3.7249413"
         inkscape:collect="always" />
    </filter>
    <filter
       id="filter17183"
       inkscape:collect="always">
      <feGaussianBlur
         id="feGaussianBlur17185"
         stdDeviation="3.3680938"
         inkscape:collect="always" />
    </filter>
    <filter
       id="filter17179"
       inkscape:collect="always">
      <feGaussianBlur
         id="feGaussianBlur17181"
         stdDeviation="4.3939426"
         inkscape:collect="always" />
    </filter>
    <filter
       id="filter17175"
       inkscape:collect="always">
      <feGaussianBlur
         id="feGaussianBlur17177"
         stdDeviation="4.5790492"
         inkscape:collect="always" />
    </filter>
    <linearGradient
       id="linearGradient8367">
      <stop
         id="stop8369"
         offset="0"
         style="stop-color:#000000;stop-opacity:1;" />
      <stop
         id="stop8371"
         offset="1"
         style="stop-color:#000000;stop-opacity:0;" />
    </linearGradient>
    <linearGradient
       id="linearGradient9358">
      <stop
         id="stop9360"
         offset="0"
         style="stop-color:#ffffff;stop-opacity:1;" />
      <stop
         id="stop9362"
         offset="1"
         style="stop-color:#cecbd9;stop-opacity:0.74257427;" />
    </linearGradient>
    <linearGradient
       id="linearGradient24132">
      <stop
         id="stop24134"
         offset="0"
         style="stop-color:#000000;stop-opacity:0.78431374;" />
      <stop
         id="stop24136"
         offset="1"
         style="stop-color:#727272;stop-opacity:0.78431374;" />
    </linearGradient>
    <radialGradient
       inkscape:collect="always"
       xlink:href="#linearGradient9358"
       id="radialGradient4755"
       gradientUnits="userSpaceOnUse"
       gradientTransform="matrix(1.1354249,0,0,0.708889,-30.907035,80.847525)"
       cx="228.22267"
       cy="210.71252"
       fx="228.22267"
       fy="210.71252"
       r="112.85714" />
    <radialGradient
       inkscape:collect="always"
       xlink:href="#linearGradient9358"
       id="radialGradient4757"
       gradientUnits="userSpaceOnUse"
       gradientTransform="matrix(1,0,0,0.5316456,0,118.19494)"
       cx="232.92369"
       cy="215.65633"
       fx="232.92369"
       fy="215.65633"
       r="112.85714" />
    <radialGradient
       inkscape:collect="always"
       xlink:href="#linearGradient9358"
       id="radialGradient4759"
       gradientUnits="userSpaceOnUse"
       gradientTransform="matrix(1,0,0,0.5316456,0,118.19494)"
       cx="218.57143"
       cy="241.33934"
       fx="218.57143"
       fy="241.33934"
       r="112.85714" />
    <radialGradient
       inkscape:collect="always"
       xlink:href="#linearGradient9358"
       id="radialGradient4761"
       gradientUnits="userSpaceOnUse"
       gradientTransform="matrix(1,0,0,0.5316456,0,118.19494)"
       cx="225.64207"
       cy="226.87163"
       fx="225.64207"
       fy="226.87163"
       r="112.85714" />
    <radialGradient
       inkscape:collect="always"
       xlink:href="#linearGradient9358"
       id="radialGradient4763"
       gradientUnits="userSpaceOnUse"
       gradientTransform="matrix(1,0,0,0.5316456,0,118.19494)"
       cx="239.28571"
       cy="228.17851"
       fx="239.28571"
       fy="228.17851"
       r="112.85714" />
    <radialGradient
       inkscape:collect="always"
       xlink:href="#linearGradient9358"
       id="radialGradient4765"
       gradientUnits="userSpaceOnUse"
       gradientTransform="matrix(1,0,0,0.5316456,0,118.19494)"
       cx="230.06285"
       cy="223.81944"
       fx="230.06285"
       fy="223.81944"
       r="112.85714" />
    <radialGradient
       inkscape:collect="always"
       xlink:href="#linearGradient9358"
       id="radialGradient4767"
       gradientUnits="userSpaceOnUse"
       gradientTransform="matrix(1,0,0,0.5316456,0,118.19494)"
       cx="231.42857"
       cy="222.32793"
       fx="231.42857"
       fy="222.32793"
       r="112.85714" />
    <radialGradient
       inkscape:collect="always"
       xlink:href="#linearGradient9358"
       id="radialGradient4769"
       gradientUnits="userSpaceOnUse"
       gradientTransform="matrix(1,0,0,0.5316456,0,118.19494)"
       cx="234.10036"
       cy="218.77374"
       fx="234.10036"
       fy="218.77374"
       r="112.85714" />
    <radialGradient
       inkscape:collect="always"
       xlink:href="#linearGradient9358"
       id="radialGradient4771"
       gradientUnits="userSpaceOnUse"
       gradientTransform="matrix(1,0,0,0.5316456,0,118.19494)"
       cx="232.92369"
       cy="226.31287"
       fx="232.92369"
       fy="226.31287"
       r="112.85714" />
    <linearGradient
       inkscape:collect="always"
       xlink:href="#linearGradient24132"
       id="linearGradient4773"
       gradientUnits="userSpaceOnUse"
       gradientTransform="translate(7.0721537,7.1504076)"
       x1="332.04541"
       y1="564.73291"
       x2="420.57245"
       y2="209.88333" />
    <linearGradient
       inkscape:collect="always"
       xlink:href="#linearGradient8367"
       id="linearGradient4832"
       x1="215.86243"
       y1="163.44092"
       x2="215.86243"
       y2="-14.00851"
       gradientUnits="userSpaceOnUse"
       gradientTransform="matrix(1.3584974,0,0,0.8664637,-1532.6308,17.98178)" />
  </defs>
  <sodipodi:namedview
     id="base"
     pagecolor="#ffffff"
     bordercolor="#666666"
     borderopacity="1.0"
     inkscape:pageopacity="0.0"
     inkscape:pageshadow="2"
     inkscape:zoom="3.5091794"
     inkscape:cx="-27.921984"
     inkscape:cy="111.24444"
     inkscape:document-units="px"
     inkscape:current-layer="layer1"
     showgrid="false"
     inkscape:window-width="1920"
     inkscape:window-height="1058"
     inkscape:window-x="1592"
     inkscape:window-y="-8"
     showguides="true"
     inkscape:guide-bbox="true"
     inkscape:window-maximized="0" />
  <metadata
     id="metadata7599">
    <rdf:RDF>
      <cc:Work
         rdf:about="">
        <dc:format>image/svg+xml</dc:format>
        <dc:type
           rdf:resource="http://purl.org/dc/dcmitype/StillImage" />
        <dc:title>hw_central_computer_1</dc:title>
        <dc:date>2008-05-17</dc:date>
        <dc:creator>
          <cc:Agent>
            <dc:title>Jean Cartier</dc:title>
          </cc:Agent>
        </dc:creator>
        <cc:license
           rdf:resource="http://creativecommons.org/licenses/publicdomain/" />
        <dc:language>fr-FR</dc:language>
        <dc:subject>
          <rdf:Bag>
            <rdf:li>hardware</rdf:li>
            <rdf:li>computer</rdf:li>
          </rdf:Bag>
        </dc:subject>
        <dc:contributor>
          <cc:Agent>
            <dc:title>Jean-Victor Balin (jean.victor.balin@gmail.com)</dc:title>
          </cc:Agent>
        </dc:contributor>
        <dc:description>http://www.jcartier.net</dc:description>
      </cc:Work>
      <cc:License
         rdf:about="http://creativecommons.org/licenses/publicdomain/">
        <cc:permits
           rdf:resource="http://creativecommons.org/ns#Reproduction" />
        <cc:permits
           rdf:resource="http://creativecommons.org/ns#Distribution" />
        <cc:permits
           rdf:resource="http://creativecommons.org/ns#DerivativeWorks" />
      </cc:License>
      <cc:Work
         rdf:about="">
        <dc:format>image/svg+xml</dc:format>
        <dc:type
           rdf:resource="http://purl.org/dc/dcmitype/StillImage" />
      </cc:Work>
    </rdf:RDF>
  </metadata>
  <g
     inkscape:label="Calque 1"
     inkscape:groupmode="layer"
     id="layer1"
     transform="translate(1312.6057,-5.6805611)">
    <rect
       style="opacity:0.47342996;fill:url(#linearGradient4832);fill-opacity:1;stroke:#000000;stroke-width:0.5;stroke-miterlimit:4;stroke-dasharray:none;stroke-dashoffset:0;stroke-opacity:1"
       id="rect4822"
       width="145.94681"
       height="153.58017"
       x="-1312.3557"
       y="5.9305611" />
    <path
       style="opacity:1;fill:#888888;fill-opacity:1;stroke:none;stroke-width:0.69999999;stroke-linecap:round;stroke-linejoin:round;stroke-miterlimit:4;stroke-dasharray:none"
       d=""
       id="path8460" />
    <path
       style="opacity:1;fill:#888888;fill-opacity:1;stroke:none;stroke-width:0.69999999;stroke-linecap:round;stroke-linejoin:round;stroke-miterlimit:4;stroke-dasharray:none"
       d=""
       id="path8462" />
    <path
       style="opacity:1;fill:#888888;fill-opacity:1;stroke:none;stroke-width:0.69999999;stroke-linecap:round;stroke-linejoin:round;stroke-miterlimit:4;stroke-dasharray:none"
       d=""
       id="path8464" />
    <g
       id="g2536"
       transform="translate(-141.22616,76.711528)">
      <path
         style="fill:#8787de;fill-opacity:1;fill-rule:evenodd;stroke:none;stroke-width:1px;stroke-linecap:butt;stroke-linejoin:miter;stroke-opacity:1"
         id="path27036"
         d="M -1108.8045,53.114109 L -1108.8045,69.211671 L -1098.0728,74.577525 L -1098.0728,58.479963 L -1108.8045,53.114109 z " />
      <path
         style="fill:#3737c8;fill-opacity:1;fill-rule:evenodd;stroke:none;stroke-width:1px;stroke-linecap:butt;stroke-linejoin:miter;stroke-opacity:1"
         id="path27038"
         sodipodi:nodetypes="ccccc"
         d="M -1098.0728,74.577525 L -1087.3411,69.211671 L -1087.3411,53.114109 L -1098.0728,58.479963 L -1098.0728,74.577525 z " />
      <path
         style="fill:#5f5fd3;fill-opacity:1;fill-rule:evenodd;stroke:none;stroke-width:1px;stroke-linecap:butt;stroke-linejoin:miter;stroke-opacity:1"
         id="path27034"
         sodipodi:nodetypes="ccczc"
         d="M -1108.8045,53.114109 L -1098.0728,47.748255 L -1087.3411,53.114109 C -1087.3411,53.114109 -1097.5362,58.479963 -1098.0728,58.479963 C -1098.6094,58.479963 -1108.8045,53.114109 -1108.8045,53.114109 z " />
      <path
         style="fill:#000000;fill-opacity:1;fill-rule:evenodd;stroke:none;stroke-width:1px;stroke-linecap:butt;stroke-linejoin:miter;stroke-opacity:1"
         d="M -1098.0728,48.526476 L -1099.7497,49.364891 L -1098.0728,50.186537 L -1096.396,49.364891 L -1098.0728,48.526476 z "
         id="path27048"
         sodipodi:nodetypes="ccccc" />
      <path
         style="fill:#000000;fill-opacity:1;fill-rule:evenodd;stroke:none;stroke-width:1px;stroke-linecap:butt;stroke-linejoin:miter;stroke-opacity:1"
         d="M -1095.9265,49.599647 L -1096.0439,49.649952 L -1097.117,50.186537 L -1097.6033,50.438061 L -1097.117,50.672818 L -1096.0439,51.209403 L -1095.9265,51.259708 L -1095.8091,51.209403 L -1094.7359,50.672818 L -1094.2497,50.438061 L -1094.7359,50.186537 L -1095.8091,49.649952 L -1095.9265,49.599647 z M -1095.9265,50.203305 L -1095.457,50.438061 L -1095.9265,50.672818 L -1096.396,50.438061 L -1095.9265,50.203305 z "
         id="path27050" />
      <path
         style="fill:#000000;fill-opacity:1;fill-rule:evenodd;stroke:none;stroke-width:1px;stroke-linecap:butt;stroke-linejoin:miter;stroke-opacity:1"
         d="M -1093.7801,50.672818 L -1095.457,51.511232 L -1093.7801,52.332879 L -1092.1033,51.511232 L -1093.7801,50.672818 z "
         id="path27052"
         sodipodi:nodetypes="ccccc" />
      <path
         style="fill:#000000;fill-opacity:1;fill-rule:evenodd;stroke:none;stroke-width:1px;stroke-linecap:butt;stroke-linejoin:miter;stroke-opacity:1"
         d="M -1091.6338,51.745988 L -1091.7512,51.796293 L -1092.8243,52.332879 L -1093.3106,52.584403 L -1092.8243,52.819159 L -1091.7512,53.355745 L -1091.6338,53.406049 L -1091.5164,53.355745 L -1090.4432,52.819159 L -1089.957,52.584403 L -1090.4432,52.332879 L -1091.5164,51.796293 L -1091.6338,51.745988 z M -1091.6338,52.349647 L -1091.1643,52.584403 L -1091.6338,52.819159 L -1092.1033,52.584403 L -1091.6338,52.349647 z "
         id="path27044" />
      <path
         style="fill:#000000;fill-opacity:1;fill-rule:evenodd;stroke:none;stroke-width:1px;stroke-linecap:butt;stroke-linejoin:miter;stroke-opacity:1"
         d="M -1102.3655,50.672818 L -1104.0423,51.511232 L -1102.3655,52.332879 L -1100.6887,51.511232 L -1102.3655,50.672818 z "
         id="path27042"
         sodipodi:nodetypes="ccccc" />
      <path
         style="fill:#000000;fill-opacity:1;fill-rule:evenodd;stroke:none;stroke-width:1px;stroke-linecap:butt;stroke-linejoin:miter;stroke-opacity:1"
         d="M -1100.2192,49.599647 L -1100.3365,49.649952 L -1101.4097,50.186537 L -1101.896,50.438061 L -1101.4097,50.672818 L -1100.3365,51.209403 L -1100.2192,51.259708 L -1100.1018,51.209403 L -1099.0286,50.672818 L -1098.5423,50.438061 L -1099.0286,50.186537 L -1100.1018,49.649952 L -1100.2192,49.599647 z M -1100.2192,50.203305 L -1099.7497,50.438061 L -1100.2192,50.672818 L -1100.6887,50.438061 L -1100.2192,50.203305 z "
         id="path27046" />
      <path
         style="fill:#000000;fill-opacity:1;fill-rule:evenodd;stroke:none;stroke-width:1px;stroke-linecap:butt;stroke-linejoin:miter;stroke-opacity:1"
         d="M -1104.5118,51.745988 L -1104.6292,51.796293 L -1105.7024,52.332879 L -1106.1887,52.584403 L -1105.7024,52.819159 L -1104.6292,53.355745 L -1104.5118,53.406049 L -1104.3945,53.355745 L -1103.3213,52.819159 L -1102.835,52.584403 L -1103.3213,52.332879 L -1104.3945,51.796293 L -1104.5118,51.745988 z M -1104.5118,52.349647 L -1104.0423,52.584403 L -1104.5118,52.819159 L -1104.9814,52.584403 L -1104.5118,52.349647 z "
         id="path27040" />
      <path
         sodipodi:nodetypes="ccccc"
         id="rect12348"
         d="M -1103.4584,64.372526 L -1099.0933,66.469489 L -1099.0505,71.433727 L -1103.5012,69.251174 L -1103.4584,64.372526 z "
         style="fill:#729fcf;fill-opacity:1;stroke:none;stroke-width:0.5;stroke-linecap:round;stroke-linejoin:round;stroke-miterlimit:4;stroke-opacity:1" />
      <path
         id="path27054"
         d="M -1103.707,63.946427 L -1103.707,64.382403 L -1103.707,69.211671 L -1103.707,69.379354 L -1103.5561,69.446428 L -1099.2634,71.592769 L -1098.8777,71.793989 L -1098.8777,71.358013 L -1098.8777,66.528744 L -1098.8777,66.361061 L -1099.0286,66.293988 L -1103.3213,64.147647 L -1103.707,63.946427 z M -1103.1704,64.818378 L -1099.4143,66.696427 L -1099.4143,70.922037 L -1103.1704,69.043988 L -1103.1704,64.818378 z "
         style="fill:#000000;fill-opacity:1;fill-rule:evenodd;stroke:none;stroke-width:1px;stroke-linecap:butt;stroke-linejoin:miter;stroke-opacity:1" />
      <path
         id="path27058"
         d="M -1107.9997,55.361061 L -1107.9997,55.797036 L -1107.9997,68.675086 L -1107.9997,68.842769 L -1107.8487,68.909842 L -1106.7756,69.446428 L -1106.3899,69.647647 L -1106.3899,69.211671 L -1106.3899,56.333622 L -1106.3899,56.165939 L -1106.5408,56.098866 L -1107.614,55.56228 L -1107.9997,55.361061 z M -1107.4631,56.233012 L -1106.9265,56.501305 L -1106.9265,68.775696 L -1107.4631,68.507403 L -1107.4631,56.233012 z "
         style="fill:#000000;fill-opacity:1;fill-rule:evenodd;stroke:none;stroke-width:1px;stroke-linecap:butt;stroke-linejoin:miter;stroke-opacity:1" />
      <path
         sodipodi:nodetypes="ccccc"
         id="path27056"
         d="M -1106.1216,56.165939 L -1106.1216,69.647647 L -1104.5118,70.452525 L -1104.5118,56.970817 L -1106.1216,56.165939 z "
         style="fill:#000000;fill-opacity:1;fill-rule:evenodd;stroke:none;stroke-width:1px;stroke-linecap:butt;stroke-linejoin:miter;stroke-opacity:1" />
      <path
         id="path27060"
         d="M -1103.707,56.970817 L -1103.707,57.406793 L -1103.707,62.772647 L -1103.707,62.94033 L -1103.5561,63.007403 L -1101.4097,64.080574 L -1101.024,64.281793 L -1101.024,63.845817 L -1101.024,58.479963 L -1101.024,58.31228 L -1101.175,58.245207 L -1103.3213,57.172036 L -1103.707,56.970817 z M -1103.1704,57.842768 L -1101.5606,58.647646 L -1101.5606,63.409842 L -1103.1704,62.604964 L -1103.1704,57.842768 z "
         style="fill:#000000;fill-opacity:1;fill-rule:evenodd;stroke:none;stroke-width:1px;stroke-linecap:butt;stroke-linejoin:miter;stroke-opacity:1" />
      <path
         id="path27062"
         d="M -1100.4875,58.580573 L -1100.4875,59.016549 L -1100.4875,64.918988 L -1100.4875,65.086671 L -1100.3365,65.153744 L -1099.2634,65.69033 L -1098.8777,65.891549 L -1098.8777,65.455574 L -1098.8777,59.553134 L -1098.8777,59.385451 L -1099.0286,59.318378 L -1100.1018,58.781793 L -1100.4875,58.580573 z M -1099.9509,59.452524 L -1099.4143,59.720817 L -1099.4143,65.019598 L -1099.9509,64.751305 L -1099.9509,59.452524 z "
         style="fill:#000000;fill-opacity:1;fill-rule:evenodd;stroke:none;stroke-width:1px;stroke-linecap:butt;stroke-linejoin:miter;stroke-opacity:1" />
      <path
         id="path28810"
         d="M -1098.0728,47.479963 C -1098.207,47.479963 -1098.2626,47.508839 -1098.3747,47.547036 C -1098.4867,47.585232 -1098.6261,47.647087 -1098.7939,47.714719 C -1099.1294,47.849983 -1099.5675,48.03668 -1100.085,48.268073 C -1101.12,48.730858 -1102.4469,49.356804 -1103.7573,49.995207 C -1105.0677,50.633609 -1106.3581,51.274323 -1107.3289,51.806182 C -1107.8143,52.072112 -1108.2285,52.319759 -1108.5195,52.510451 C -1108.6649,52.605797 -1108.7805,52.683017 -1108.8716,52.761975 C -1108.9171,52.801454 -1108.9523,52.832102 -1108.989,52.879353 C -1109.0257,52.926604 -1109.0728,52.991142 -1109.0728,53.114109 C -1109.0728,53.650695 -1109.0728,68.675086 -1109.0728,69.211671 C -1109.0728,69.334639 -1109.0257,69.399176 -1108.989,69.446428 C -1108.9523,69.493679 -1108.9171,69.524327 -1108.8716,69.563806 C -1108.7805,69.642764 -1108.6649,69.719984 -1108.5195,69.81533 C -1108.2285,70.006022 -1107.8143,70.253668 -1107.3289,70.519598 C -1106.3581,71.051458 -1105.0677,71.692172 -1103.7573,72.330574 C -1102.4469,72.968977 -1101.12,73.594923 -1100.085,74.057708 C -1099.5675,74.289101 -1099.1294,74.475797 -1098.7939,74.611062 C -1098.6261,74.678694 -1098.4867,74.740549 -1098.3747,74.778745 C -1098.2626,74.816941 -1098.207,74.845818 -1098.0728,74.845818 C -1097.9387,74.845818 -1097.883,74.816941 -1097.771,74.778745 C -1097.6589,74.740549 -1097.5195,74.678694 -1097.3518,74.611062 C -1097.0163,74.475797 -1096.5781,74.289101 -1096.0606,74.057708 C -1095.0257,73.594923 -1093.6988,72.968977 -1092.3884,72.330574 C -1091.078,71.692172 -1089.7876,71.051458 -1088.8167,70.519598 C -1088.3313,70.253668 -1087.9171,70.006022 -1087.6262,69.81533 C -1087.4807,69.719984 -1087.3651,69.642764 -1087.274,69.563806 C -1087.2285,69.524327 -1087.1933,69.493679 -1087.1567,69.446428 C -1087.12,69.399176 -1087.0728,69.334639 -1087.0728,69.211671 C -1087.0728,68.675086 -1087.0728,53.650695 -1087.0728,53.114109 C -1087.0728,52.991142 -1087.12,52.926604 -1087.1567,52.879353 C -1087.1933,52.832102 -1087.2285,52.801454 -1087.274,52.761975 C -1087.3651,52.683017 -1087.4807,52.605797 -1087.6262,52.510451 C -1087.9171,52.319759 -1088.3313,52.072112 -1088.8167,51.806182 C -1089.7876,51.274323 -1091.078,50.633609 -1092.3884,49.995207 C -1093.6988,49.356804 -1095.0257,48.730858 -1096.0606,48.268073 C -1096.5781,48.03668 -1097.0163,47.849983 -1097.3518,47.714719 C -1097.5195,47.647087 -1097.6589,47.585232 -1097.771,47.547036 C -1097.883,47.508839 -1097.9387,47.479963 -1098.0728,47.479963 z M -1098.0728,48.016548 C -1098.1399,48.016548 -1098.0517,48.017278 -1097.9554,48.050085 C -1097.8592,48.082891 -1097.7154,48.135533 -1097.553,48.200999 C -1097.2283,48.331932 -1096.7924,48.524617 -1096.2786,48.754353 C -1095.2511,49.213824 -1093.9286,49.828731 -1092.6231,50.464719 C -1091.3177,51.100707 -1090.0257,51.76792 -1089.0682,52.292463 C -1088.5895,52.554734 -1088.1967,52.770312 -1087.928,52.946426 C -1087.7937,53.034484 -1087.6847,53.11368 -1087.6262,53.164414 C -1087.6164,53.17287 -1087.6165,53.174369 -1087.6094,53.181183 C -1087.6094,53.832523 -1087.6094,68.493258 -1087.6094,69.144598 C -1087.6165,69.151412 -1087.6164,69.152911 -1087.6262,69.161367 C -1087.6847,69.212101 -1087.7937,69.291297 -1087.928,69.379354 C -1088.1967,69.555469 -1088.5895,69.771047 -1089.0682,70.033318 C -1090.0257,70.557861 -1091.3177,71.225074 -1092.6231,71.861062 C -1093.9286,72.49705 -1095.2511,73.111957 -1096.2786,73.571428 C -1096.7924,73.801163 -1097.2283,73.993849 -1097.553,74.124781 C -1097.7154,74.190248 -1097.8592,74.242889 -1097.9554,74.275696 C -1098.0517,74.308503 -1098.1399,74.309233 -1098.0728,74.309233 C -1098.0057,74.309233 -1098.094,74.308503 -1098.1902,74.275696 C -1098.2864,74.242889 -1098.4303,74.190248 -1098.5926,74.124781 C -1098.9174,73.993849 -1099.3533,73.801163 -1099.867,73.571428 C -1100.8946,73.111957 -1102.2171,72.49705 -1103.5225,71.861062 C -1104.828,71.225074 -1106.1199,70.557861 -1107.0774,70.033318 C -1107.5561,69.771047 -1107.9489,69.555469 -1108.2176,69.379354 C -1108.352,69.291297 -1108.4609,69.212101 -1108.5195,69.161367 C -1108.5292,69.152911 -1108.5292,69.151412 -1108.5362,69.144598 C -1108.5362,68.493258 -1108.5362,53.832523 -1108.5362,53.181183 C -1108.5292,53.174369 -1108.5292,53.17287 -1108.5195,53.164414 C -1108.4609,53.11368 -1108.352,53.034484 -1108.2176,52.946426 C -1107.9489,52.770312 -1107.5561,52.554734 -1107.0774,52.292463 C -1106.1199,51.76792 -1104.828,51.100707 -1103.5225,50.464719 C -1102.2171,49.828731 -1100.8946,49.213824 -1099.867,48.754353 C -1099.3533,48.524617 -1098.9174,48.331932 -1098.5926,48.200999 C -1098.4303,48.135533 -1098.2864,48.082891 -1098.1902,48.050085 C -1098.094,48.017278 -1098.0057,48.016548 -1098.0728,48.016548 z "
         style="fill:#0b0b28;fill-opacity:1;fill-rule:evenodd;stroke:none;stroke-width:1px;stroke-linecap:butt;stroke-linejoin:miter;stroke-opacity:1" />
    </g>
    <g
       transform="matrix(6.137798e-2,0,0,6.31028e-2,-1310.182,3.7973996)"
       id="g1395">
      <path
         style="fill:#fcfcfd"
         id="path1346"
         d="M 105.3759,499.56408 L 62.264953,366.13485 L 227.47681,309.43459 L 270.85338,311.77757 L 300.64063,316.93214 L 308.40381,357.7001 L 522.47417,385.47181 L 536.92211,397.77981 L 536.84352,446.1698 L 527.393,516.58386 L 508.10193,601.99303 L 487.40506,614.76963 L 446.08992,604.11636 L 434.29641,618.76735 L 414.45526,631.47805 L 394.61412,635.2854 L 375.71016,635.34398 L 355.40042,629.31079 L 337.90226,619.99742 L 324.62147,607.40386 L 322.11843,596.6847 L 338.51933,564.69909 L 276.66449,544.897 L 195.00328,609.09483 L 128.33717,578.636 L 105.3759,499.56408 z " />
      <path
         style="fill:#d2d2d2"
         id="path1344"
         d="M 366.29132,636.36125 C 352.72087,633.06944 340.57499,627.11098 331.5224,619.30449 C 321.49709,610.65919 319.36015,605.75294 320.18807,593.28186 C 320.74157,584.94442 321.75044,582.24288 326.85569,575.42709 L 332.87114,567.39619 L 328.41078,565.74038 C 325.95759,564.82968 313.45556,560.35628 300.62848,555.79947 L 277.30655,547.51438 L 266.55634,556.32474 C 260.64373,561.17044 242.9825,575.76199 227.30919,588.7504 C 206.43848,606.04587 197.69703,612.36569 194.64503,612.36569 C 192.35306,612.36569 176.05439,605.35475 158.42576,596.78582 L 126.37371,581.20596 L 120.69086,564.65355 C 108.83895,530.1325 58.362719,371.97699 58.362719,369.36282 C 58.362719,367.85828 59.634155,365.5498 61.188121,364.23285 C 62.742094,362.91591 99.933978,349.91628 143.83676,335.3448 L 223.65998,308.85118 L 238.28588,308.9762 C 264.52814,309.20052 302.16884,312.56206 303.61779,314.81071 C 304.34668,315.94187 305.42109,322.5548 306.0054,329.50611 C 306.5897,336.45742 307.48989,345.31709 308.00582,349.19427 L 308.94385,356.24368 L 339.05033,359.73255 C 457.39954,373.44735 512.55345,380.39695 520.09401,382.54477 C 530.5922,385.535 538.45599,392.52463 540.92726,401.06217 C 544.68097,414.03019 542.77569,437.45698 532.87293,500.09629 C 526.43807,540.79953 516.35838,589.32948 512.03968,600.40059 C 510.14245,605.26419 506.40469,611.33967 503.73353,613.90167 C 496.83619,620.5172 486.41739,620.30905 463.97887,613.10745 C 454.63522,610.10864 446.85916,607.84389 446.69873,608.07469 C 446.5383,608.30548 444.78564,611.08097 442.80394,614.24242 C 438.22301,621.55047 429.30582,628.32671 417.37635,633.56505 C 409.59749,636.98079 405.24874,637.76098 391.80905,638.15188 C 381.37865,638.45525 372.29649,637.81793 366.29132,636.36125 z M 413.21952,630.2244 C 424.36324,625.78369 420.96774,624.07628 398.89564,623.02177 C 382.34967,622.23125 376.16233,621.19983 363.50604,617.12232 C 355.0702,614.40453 343.6909,609.78351 338.21873,606.85338 C 325.88851,600.25106 323.90702,600.1019 327.09566,606.01608 C 332.38808,615.8323 350.09523,626.84235 368.34958,631.66718 C 380.05561,634.7612 403.74632,633.99944 413.21952,630.2244 z M 488.37317,606.26551 C 491.16184,605.24858 493.3266,602.33675 495.56838,596.58711 C 503.16902,577.09335 522.80309,466.40434 528.32024,411.9453 C 530.46987,390.72652 530.61974,391.03185 516.07769,387.00197 C 507.11354,384.51782 286.42663,358.41386 274.3413,358.40816 C 260.94474,358.40186 261.10775,357.57651 262.31599,419.28783 C 262.88602,448.4019 264.11893,484.06886 265.0558,498.54774 C 266.94699,527.77537 268.7744,533.68963 277.38084,538.43688 C 282.85359,541.45561 307.69873,550.31451 396.60359,580.9476 C 475.12701,608.00364 479.95454,609.33548 488.37317,606.26551 z M 453.03868,584.4671 C 436.14179,580.10863 299.89191,535.66353 291.54096,531.7861 C 287.58048,529.9472 283.44423,526.94263 282.3493,525.10928 C 279.78073,520.80845 279.46377,390.55605 282.00985,385.61297 C 283.06108,383.57209 285.54648,382.23123 288.84895,381.92336 C 293.56837,381.48339 341.63001,388.30586 434.54469,402.60525 C 487.04801,410.68539 489.4382,412.04043 489.4382,433.72527 C 489.4382,460.63141 475.60052,574.29202 471.39041,581.96697 C 469.64024,585.15749 466.88437,587.61609 465.22048,587.47135 C 464.77649,587.43271 459.29467,586.08082 453.03868,584.4671 z M 164.30963,528.58534 C 161.24419,517.20463 159.12602,507.28803 159.60256,506.54846 C 161.50366,503.59814 167.3203,512.22986 171.63293,524.40118 C 177.87051,542.00515 176.33108,534.58771 161.44649,475.3196 C 154.38794,447.21353 146.32261,414.46184 143.52356,402.53806 C 140.72449,390.61427 138.39989,380.77011 138.35778,380.66213 C 138.04295,379.85488 65.679566,367.96103 64.681746,368.55252 C 63.216388,369.42116 64.998726,375.70811 76.511611,410.28077 C 81.049532,423.90795 85.041109,433.88852 85.381767,432.45978 C 86.150142,429.23727 91.779172,429.83083 112.44897,435.31395 C 134.17943,441.07844 140.20626,444.01884 143.38163,450.40558 C 145.62829,454.92436 145.76286,456.5985 144.15199,459.9895 C 142.35799,463.76602 141.65014,464.01743 135.39715,463.09894 C 112.34161,459.71238 107.6918,460.1821 114.06349,465.25406 C 115.66677,466.53029 116.48526,469.99624 116.48526,475.5092 C 116.48526,483.78853 116.51413,483.83658 121.48843,483.83658 C 137.98993,483.83658 154.83897,504.92057 165.11851,538.43294 C 170.91591,557.33306 170.41705,551.25964 164.30963,528.58534 z M 105.7774,421.97958 C 95.892151,419.54857 85.975808,416.41051 83.741089,415.00609 C 78.023163,411.41265 75.289306,404.60174 77.776007,400.14515 C 79.558272,396.95104 80.490102,396.76508 90.423693,397.62117 C 96.321719,398.12945 107.08535,400.32463 114.34287,402.49934 C 129.68457,407.09647 135.85944,412.47453 135.85944,421.2394 C 135.85944,426.34525 135.63647,426.53787 129.80501,426.47004 C 126.47507,426.43131 115.66265,424.4106 105.7774,421.97958 z M 127.78686,419.47023 C 127.78686,413.86287 119.4086,410.0562 97.40916,405.66814 C 83.175277,402.82901 84.194958,402.8497 84.194958,405.39997 C 84.194958,407.94253 92.091628,411.40983 109.21994,416.38801 C 122.21566,420.16511 127.78686,421.08995 127.78686,419.47023 z M 131.0159,412.60359 C 131.0159,411.75189 130.24648,411.05504 129.3061,411.05504 C 128.36571,411.05504 128.04531,411.75189 128.59412,412.60359 C 129.87272,414.58786 131.0159,414.58786 131.0159,412.60359 z M 154.29014,532.93532 C 152.88842,528.9896 148.84334,522.77404 145.30107,519.12296 C 138.50045,512.11345 138.57547,513.45037 145.50138,522.69275 C 147.79396,525.75211 151.03526,531.15976 152.70429,534.70975 C 156.64607,543.09388 157.5426,542.09074 154.29014,532.93532 z M 135.85944,452.14592 C 135.85944,448.97728 131.39,446.99728 112.62504,441.85288 C 93.828797,436.69988 92.283499,436.51071 95.691941,439.77987 C 97.767657,441.77077 130.69672,454.07326 134.64855,454.33428 C 135.31454,454.37827 135.85944,453.3935 135.85944,452.14592 z " />
      <path
         style="fill:#aaaaaa"
         id="path1342"
         d="M 375.6149,637.61072 C 367.2578,636.5476 353.45472,632.37189 345.47131,628.49169 C 318.82423,615.54035 312.33815,593.70859 328.93647,572.83628 C 331.32571,569.83183 332.9976,567.17601 332.65177,566.93449 C 332.30594,566.69296 319.74051,562.19873 304.72856,556.94735 L 277.43413,547.39934 L 264.36569,557.97671 C 257.17806,563.79426 239.34337,578.41169 224.73307,590.45988 C 210.12278,602.50808 196.77418,612.36569 195.06953,612.36569 C 192.12448,612.36569 142.33069,589.39109 131.59715,583.07986 C 125.55362,579.52632 125.1855,578.51388 89.037432,466.02833 C 75.626143,424.29509 63.601162,387.06399 62.315254,383.29254 C 59.051576,373.7205 59.262211,365.06993 62.802641,363.2764 C 64.356607,362.48918 101.90268,349.79098 146.23836,335.05818 L 226.84869,308.27127 L 263.85944,310.54276 C 295.39558,312.47826 301.17349,313.21212 302.92069,315.50392 C 304.04847,316.98323 305.45178,323.93104 306.03918,330.94349 C 306.62655,337.95594 307.51621,346.57745 308.01621,350.10239 L 308.92528,356.51138 L 323.70318,358.23818 C 459.45631,374.10103 511.25673,380.58259 519.06058,382.68238 C 536.46445,387.36529 542.69054,396.69348 542.70819,418.11224 C 542.73105,445.8508 522.85971,567.16062 513.56527,596.02292 C 511.32719,602.97287 508.36053,608.12455 504.15386,612.36598 C 498.69693,617.86801 497.16797,618.55986 490.4656,618.55986 C 486.20846,618.55986 475.0856,616.13052 464.94151,612.98515 C 448.05457,607.74904 446.8641,607.57918 445.34159,610.18861 C 442.14449,615.66808 430.57189,626.59009 424.12137,630.21589 C 412.3492,636.83293 392.85843,639.80431 375.6149,637.61072 z M 415.17052,629.19693 C 420.05442,627.01912 426.48997,623.03661 429.47173,620.34691 C 433.96116,616.29722 434.70739,614.72505 433.81269,611.20117 C 432.23713,604.99574 426.98334,600.88671 415.52701,596.8998 L 405.38917,593.37175 L 400.04217,599.30456 L 394.69517,605.23737 L 377.47158,598.736 C 367.99859,595.16024 359.68944,592.23462 359.00679,592.23462 C 356.04355,592.23462 352.20443,585.55107 352.20443,580.39237 L 352.20443,574.77967 L 344.9113,575.73847 C 330.29494,577.65999 323.83647,584.37477 324.18674,597.28553 C 324.52301,609.68139 340.19579,623.34159 362.03961,630.27764 C 378.67991,635.56142 401.95958,635.08789 415.17052,629.19693 z M 494.37117,612.31979 C 496.07958,611.44283 498.53395,608.76558 499.82534,606.37035 C 506.01144,594.89657 532.22212,439.78743 533.43935,407.44988 C 533.82007,397.33555 533.6164,396.68664 528.75032,392.51064 C 525.31498,389.56248 519.97203,387.33976 512.29485,385.66495 C 501.25604,383.25683 281.66597,356.86535 272.61619,356.85913 C 269.90068,356.85726 266.42423,358.46609 263.88868,360.89803 L 259.67449,364.94004 L 260.70834,427.87253 C 261.85957,497.94787 263.6723,526.39729 267.43025,533.36741 C 270.60427,539.25452 273.96795,540.86341 310.18378,553.81708 C 355.42458,569.99881 475.41301,611.90825 479.00929,612.7843 C 484.62646,614.15266 491.18698,613.95427 494.37117,612.31979 z M 453.11162,581.8729 C 451.33565,581.44275 414.78037,569.95953 371.87767,556.35467 C 311.52006,537.21467 292.75097,530.65718 288.9143,527.36919 C 284.02873,523.18232 283.93648,522.82553 282.6367,503.0911 C 281.01874,478.52586 280.81217,427.25128 282.2357,403.55469 C 283.18806,387.70132 283.62324,385.84358 286.69953,384.4992 C 290.30113,382.92526 317.94753,386.73627 412.50776,401.84169 C 479.33287,412.51661 482.53589,413.38915 486.22089,421.92199 C 489.97659,430.61855 485.72516,481.36297 475.67141,547.83917 C 470.95577,579.01935 469.74467,582.07753 461.97998,582.41204 C 458.87834,582.54567 454.88758,582.30305 453.11162,581.8729 z M 195.59649,607.04999 C 195.59649,606.68144 192.71401,595.00929 189.19098,581.11188 C 174.83044,524.46344 145.47821,407.50696 143.0157,397.12254 C 141.56621,391.01001 140.71539,384.32739 141.12499,382.27225 C 141.72075,379.28307 141.18787,378.52932 138.46095,378.50407 C 136.58613,378.48671 119.62499,375.82554 100.76953,372.59035 C 81.914071,369.35517 65.649031,367.20486 64.624986,367.81189 C 63.316822,368.58735 69.837554,390.9552 86.55069,443.02292 C 122.48756,554.97984 127.82104,571.02692 130.34246,574.78128 C 131.61756,576.67988 134.93291,579.36022 137.7099,580.73757 L 142.75899,583.24187 L 139.49869,578.83412 C 134.19618,571.6654 126.31876,553.82287 121.25497,537.51164 C 115.45177,518.81869 113.08062,491.11169 116.87466,486.32769 C 123.16752,478.39287 142.23396,490.9852 152.47321,509.83858 C 160.93766,525.42403 177.04003,575.10787 178.14838,589.05925 C 178.43095,592.61611 177.6829,594.80143 175.79098,595.94605 C 173.4238,597.37822 174.48924,598.34799 183.09719,602.59625 C 192.95571,607.4617 195.59649,608.40265 195.59649,607.04999 z M 122.13606,456.13537 C 114.14421,453.77178 105.00292,450.75996 101.82207,449.4424 C 94.843471,446.55176 88.718299,439.52026 89.370334,435.14823 C 89.769058,432.4747 90.887691,432.01023 96.303821,432.2693 C 105.44664,432.70666 139.55763,443.82821 140.47702,446.67154 C 141.12491,448.67527 140.85397,448.69812 138.50475,446.83801 C 137.00691,445.65201 135.37347,445.07292 134.87489,445.55114 C 133.90626,446.48019 138.81949,449.42235 141.51024,449.52453 C 143.40732,449.59659 145.31981,455.87763 144.29573,458.67276 C 143.25866,461.50336 138.40883,460.94803 122.13606,456.13537 z M 137.47396,454.58581 C 137.47396,449.32795 127.31729,444.55928 104.00153,438.87014 C 95.069751,436.69074 92.862068,437.24289 94.467156,441.25477 C 95.627191,444.15426 103.05994,447.38534 119.71429,452.22993 C 132.98679,456.09078 137.47396,456.68602 137.47396,454.58581 z M 114.87074,422.53192 C 93.917741,417.20818 88.98328,415.45616 84.30233,411.67833 C 78.72339,407.17579 77.409755,399.28413 81.960407,397.60925 C 87.37297,395.61712 122.11578,403.86502 128.61709,408.68548 C 131.21023,410.6082 131.283,410.88222 128.99775,410.11889 C 127.44378,409.59983 126.17235,409.86123 126.17235,410.69976 C 126.17235,413.04046 130.66998,416.08851 132.51235,414.99638 C 134.43873,413.85447 136.64802,420.96678 135.10889,423.35537 C 133.67553,425.57984 125.56835,425.24997 114.87074,422.53192 z M 127.76214,419.1849 C 127.70579,413.00799 124.74292,411.50369 102.77863,406.50033 C 86.390762,402.76725 82.580445,402.55878 82.580445,405.39513 C 82.580445,410.30151 93.378777,414.99285 115.05315,419.50291 C 128.46173,422.29298 127.79065,422.30978 127.76214,419.1849 z M 165.95209,577.52167 C 167.05374,574.76812 163.10613,558.29479 156.62256,538.58964 C 152.92168,527.34173 150.61446,523.09826 145.395,517.93974 C 133.74255,506.4233 119.71429,503.73579 119.71429,513.01985 C 119.71429,519.24531 128.78134,549.35865 133.59338,559.11481 C 137.88213,567.81005 142.40495,571.73471 153.90545,576.74053 C 162.34514,580.41407 164.73294,580.56889 165.95209,577.52167 z " />
      <path
         style="fill:#919191"
         id="path1340"
         d="M 369.50001,636.30956 C 348.1304,632.23328 328.67613,620.65425 322.97752,608.61973 C 317.23911,596.5012 319.95545,582.44475 329.9497,572.54023 C 333.70019,568.82342 334.39743,567.353 332.69328,566.75424 C 331.43664,566.31272 318.5551,561.76095 304.06765,556.63917 C 289.58019,551.51741 277.46249,547.32686 277.13942,547.32686 C 276.81636,547.32686 258.90856,561.9606 237.34433,579.84627 C 215.78009,597.73195 196.8015,612.36569 195.16968,612.36569 C 190.46539,612.36569 129.22875,582.50623 126.89005,579.072 C 125.73003,577.36861 114.84873,545.31376 102.70937,507.83901 C 55.59403,362.39181 56.693156,366.37345 62.802641,363.27462 C 64.356607,362.48643 101.87814,349.81187 146.18382,335.10895 L 226.73961,308.37637 L 263.71431,310.69837 C 286.67927,312.14056 301.40445,313.70655 302.57717,314.83135 C 303.61564,315.8274 305.34556,325.40743 306.42143,336.1203 C 307.49729,346.83319 308.65912,355.86836 309.00331,356.19847 C 309.34748,356.52858 342.63918,360.64272 382.98485,365.341 C 517.11297,380.96031 522.58595,381.79656 531.78026,388.07596 C 542.94833,395.70337 544.79659,410.9134 539.55915,452.09144 C 535.77447,481.8475 525.60424,542.72138 520.15543,568.2322 C 514.39716,595.19186 510.42415,606.04388 503.90627,612.6156 C 498.71054,617.8543 497.11516,618.55986 490.4656,618.55986 C 486.20846,618.55986 475.0856,616.13052 464.94151,612.98515 C 447.87216,607.69247 446.8785,607.5545 445.30111,610.25799 C 441.44234,616.87148 429.1868,627.58746 421.26944,631.27078 C 405.2716,638.71329 389.9296,640.20655 369.50001,636.30956 z M 403.00521,633.22006 C 408.2312,631.91448 416.089,628.97638 420.467,626.69094 C 428.31467,622.59424 441.00275,610.48409 441.00275,607.0906 C 441.00275,605.53415 404.0303,591.19117 403.34297,592.48098 C 399.76121,599.20238 397.08084,602.3837 394.70087,602.7382 C 393.08342,602.97913 384.13147,600.41771 374.80764,597.04616 C 356.79258,590.53181 352.575,586.9542 352.32244,577.97275 C 352.22287,574.43219 351.16338,573.47726 345.54258,571.86203 C 338.97257,569.97405 338.809,570.02272 333.67818,575.39265 C 325.75051,583.68974 322.44841,593.30032 324.7313,601.43192 C 328.56945,615.10329 349.0762,628.7057 372.61184,633.19174 C 387.42211,636.01465 391.80259,636.01874 403.00521,633.22006 z M 497.02221,612.4322 C 500.91722,610.1543 502.81151,607.39974 504.73885,601.21105 C 511.87423,578.29934 536.25914,430.61214 536.25914,410.3084 C 536.25914,395.11871 529.90687,388.81519 510.65517,384.90087 C 499.61413,382.65598 280.93384,356.84809 273.22117,356.87974 C 260.04153,356.93382 259.2995,359.57784 259.75551,404.86087 C 260.2421,453.18174 263.1481,518.15604 265.22697,527.19518 C 267.25005,535.99187 271.26157,540.08493 281.73956,544.04339 C 323.08873,559.66463 463.44676,608.57737 478.1366,612.48491 C 491.40835,616.01523 490.89307,616.01667 497.02221,612.4322 z M 430.5084,572.12657 C 391.1896,560.58148 297.06265,530.22822 292.20133,527.52647 C 289.83504,526.21139 287.08848,523.42922 286.09786,521.34388 C 281.42786,511.51316 280.09405,398.63167 284.55345,390.63965 C 287.0416,386.18048 296.12949,387.01663 354.80466,397.10318 C 411.44511,406.83996 430.41008,410.70506 463.60596,419.2771 C 489.46179,425.95377 488.8541,425.018 486.26599,454.17084 C 482.13499,500.70275 471.91384,570.54054 468.282,577.0494 C 465.8691,581.37372 458.91446,580.46736 430.5084,572.12657 z M 196.43227,603.46156 C 192.3653,588.11839 177.42778,521.6753 174.58658,506.29047 C 167.54635,468.16836 168.73092,438.8048 178.64649,405.6518 C 180.68708,398.82904 183.20091,389.27051 184.23278,384.4106 C 187.14535,370.69308 196.84099,363.16246 235.09587,344.90525 C 251.99849,336.83845 264.73809,330.57349 263.40612,330.98311 C 262.07414,331.39274 234.19024,342.01796 201.44191,354.59473 L 141.89948,377.46157 L 128.78874,375.55689 C 121.57784,374.50932 105.65205,371.89676 93.398103,369.75121 C 81.144161,367.60566 69.286187,366.29123 67.047058,366.83025 C 63.416974,367.70411 63.099142,368.34933 64.113339,372.78583 C 65.408405,378.45091 120.8077,550.20447 126.61384,566.55512 C 130.20559,576.66983 130.90618,577.52899 139.19286,581.98149 L 147.9683,586.6966 L 142.49205,580.6445 C 133.77077,571.00614 127.7592,555.75063 118.96899,520.95028 C 111.145,489.97517 114.62133,478.95211 129.88518,486.33618 C 143.25111,492.80213 152.79317,506.96411 162.44071,534.654 C 170.94646,559.06677 178.71665,589.35046 177.35073,592.76456 C 176.74756,594.27218 174.47027,595.36334 171.83306,595.40835 C 168.15842,595.47106 169.54267,596.58262 179.45134,601.52588 C 194.45384,609.01036 198.01054,609.41581 196.43227,603.46156 z M 133.43767,458.86572 C 111.34064,454.02457 94.893131,446.84451 91.504974,440.56026 C 88.969987,435.85845 89.63754,431.18529 92.843901,431.18721 C 98.924661,431.19086 138.48982,443.35464 132.93876,443.51385 C 131.74231,443.54816 131.33184,444.36053 131.99272,445.38616 C 132.7763,446.6022 132.28193,446.87464 130.48907,446.21477 C 124.61802,444.05388 100.90787,437.54203 97.261151,437.08889 C 92.151283,436.45396 91.251973,439.44925 95.431224,443.18371 C 98.770391,446.16749 129.16847,456.0529 134.82358,455.99403 C 137.20448,455.96925 137.61716,455.17233 136.82221,452.13441 C 135.91788,448.67855 136.17577,448.43213 139.47259,449.60186 C 142.07546,450.52539 143.12475,452.14436 143.12475,455.23688 C 143.12475,460.34141 142.03559,460.7494 133.43767,458.86572 z M 109.01786,420.43381 C 99.138896,418.00432 89.549608,415.24325 87.708332,414.2981 C 80.341925,410.5168 76.498083,399.61969 81.837482,397.65448 C 84.983759,396.49648 101.1334,399.34075 115.20844,403.53176 C 124.17429,406.20145 125.67372,407.10889 123.91171,408.79891 C 122.14969,410.48893 119.17088,410.19753 106.6216,407.10755 C 89.614861,402.92002 82.568465,402.37442 82.605168,405.24801 C 82.674295,410.66025 89.543656,414.00741 110.44625,418.81388 C 127.72978,422.78816 128.3357,422.75989 127.39171,418.02349 C 126.61902,414.14659 128.31896,412.76804 130.22491,415.72593 C 130.78267,416.59152 131.86303,416.92983 132.62573,416.47772 C 134.36586,415.44621 136.42247,421.31681 135.06111,423.42953 C 133.52458,425.8141 128.58526,425.24593 109.01786,420.43381 z M 166.92093,577.96216 C 168.77384,572.63056 155.04249,528.65062 149.20682,521.2259 C 143.91486,514.49293 131.6391,507.06474 125.80423,507.06474 C 118.36692,507.06474 117.86622,511.61212 123.20082,530.70933 C 132.06304,562.43491 135.32816,567.78735 150.39007,575.27998 C 159.92538,580.02338 165.86941,580.98781 166.92093,577.96216 z " />
      <path
         style="fill:#707071"
         id="path1338"
         d="M 373.43663,636.90133 C 353.82564,634.20899 333.14475,623.62928 325.31777,612.28521 C 317.25652,600.60159 318.813,584.45232 329.04755,573.5868 L 334.77818,567.50285 L 330.17157,565.792 C 317.17343,560.96462 278.22986,547.32686 277.44309,547.32686 C 276.94437,547.32686 259.2825,561.63071 238.1945,579.1132 C 217.10648,596.59569 198.25394,611.28439 196.29996,611.75477 C 193.81769,612.35232 182.84021,607.79087 159.86557,596.61526 L 126.98385,580.62055 L 123.45228,570.55501 C 110.70412,534.2208 59.977239,373.53068 59.977239,369.48192 C 59.977239,363.49348 53.296525,366.25743 126.17235,342.09558 C 157.69575,331.64405 193.2958,319.80123 205.28358,315.77822 L 227.07953,308.46364 L 264.05636,310.90705 C 284.39362,312.25093 301.73554,314.02412 302.59396,314.84747 C 303.45238,315.67081 305.11444,325.18576 306.28742,335.99179 C 307.46042,346.79782 308.73296,355.93917 309.11533,356.30591 C 309.49769,356.67265 348.2288,361.46795 395.18445,366.96213 C 521.08597,381.69361 521.45098,381.75061 531.6055,388.26606 C 540.35158,393.8778 542.99873,403.25658 541.97136,424.99194 C 540.53626,455.3537 523.50329,559.63885 515.20607,588.86375 C 506.50585,619.50808 498.2381,623.52234 465.38338,613.05432 C 447.78672,607.44776 447.0065,607.33512 445.35652,610.16302 C 444.41224,611.7814 440.49209,616.33304 436.64507,620.27775 C 428.16225,628.97601 415.00832,634.95898 399.70237,637.08087 C 387.12606,638.82435 387.46041,638.82664 373.43663,636.90133 z M 400.96404,633.87873 C 417.1801,630.62798 432.22782,621.34873 439.54202,610.08941 L 442.52966,605.49029 L 423.72108,598.86246 C 402.94374,591.54086 402.27768,591.39563 402.20068,594.1703 C 402.1248,596.90487 396.4837,603.07442 394.05925,603.07442 C 392.94452,603.07442 384.22699,600.20489 374.68696,596.69769 L 357.34145,590.32095 L 354.34517,581.74721 C 351.72055,574.237 350.61285,572.92904 345.41541,571.20317 C 339.52434,569.24698 339.43587,569.28085 333.02871,575.94777 C 316.94483,592.68373 322.47032,611.94015 346.92765,624.38577 C 365.28575,633.72769 384.70203,637.13868 400.96404,633.87873 z M 501.05632,609.34154 C 503.45035,606.82232 506.92992,600.03854 508.78868,594.26646 C 516.00831,571.84718 535.71562,455.92241 537.35785,426.21357 C 538.91201,398.09764 534.71332,390.73763 514.21321,385.64258 C 503.53314,382.98819 285.18553,356.85603 273.68673,356.85603 C 258.36001,356.85603 257.52842,362.02752 260.11552,441.25164 C 262.91176,526.87977 263.90776,534.23627 273.51932,540.25203 C 281.13974,545.02158 470.06132,611.83229 483.18253,614.39787 C 490.26714,615.78312 496.651,613.97718 501.05632,609.34154 z M 455.53339,575.07232 C 443.09843,573.13597 304.20291,530.58392 293.90939,525.55718 C 286.87419,522.1216 284.93491,517.76488 283.61012,502.4191 C 281.86252,482.17574 282.28503,402.90279 284.16492,398.32281 C 285.11653,396.00443 287.55551,393.71261 289.58488,393.22989 C 293.90869,392.20137 394.52194,409.99541 430.17678,418.09437 C 461.33773,425.17254 481.11877,430.61039 483.97427,432.88339 C 485.39346,434.0131 486.20898,437.84311 486.20862,443.37692 C 486.20749,461.25447 472.16775,567.58595 469.20029,572.19119 C 467.2771,575.17583 462.57027,576.16808 455.53339,575.07232 z M 262.12719,552.89428 C 270.6167,545.80999 271.11021,545.04809 268.39209,543.22205 C 259.56234,537.29015 257.49358,517.88317 255.8682,425.73515 C 254.91425,371.6525 255.0594,366.39519 257.65107,361.15681 C 261.64431,353.08552 267.14444,351.6734 286.99971,353.62173 C 295.7067,354.47612 303.03435,354.97974 303.28337,354.74089 C 304.17239,353.88821 300.06497,319.91088 298.84376,318.01568 C 297.88623,316.52966 294.95417,316.98719 286.15313,319.996 C 279.85815,322.14805 274.70772,323.67891 274.70772,323.39791 C 274.70772,323.1169 276.70568,321.78501 279.14764,320.43815 C 283.391,318.09773 283.01577,318.03041 270.67143,318.91743 C 263.56757,319.42788 239.12996,322.23785 216.36564,325.16181 L 174.97598,330.47809 L 128.37458,345.85765 C 68.084825,365.75469 63.206266,367.54832 63.206266,369.81702 C 63.206266,372.41334 125.34112,565.23696 128.51035,572.47573 C 130.54148,577.115 133.05157,579.23696 141.12176,583.13701 L 151.19733,588.00619 L 144.58969,581.8416 C 138.43924,576.10357 127.65803,555.67387 127.86238,550.14447 C 127.90391,549.02063 129.32989,551.5201 131.0312,555.69885 C 134.98258,565.40416 141.04195,571.55087 151.19733,576.15564 C 159.70382,580.01278 165.70673,580.83629 167.29937,578.36463 C 168.32138,576.77857 163.96379,559.06802 157.53656,538.6857 C 154.83947,530.13255 151.75241,524.11303 147.78075,519.66263 C 138.1179,508.83505 123.48909,503.63724 119.91561,509.76178 C 117.56219,513.79526 116.50907,511.66 115.44815,500.70383 C 114.62242,492.17648 114.94961,490.26866 117.80972,486.93367 L 121.12983,483.06231 L 129.80814,487.35949 C 138.80065,491.81225 147.07347,500.70158 153.33755,512.64239 C 160.96709,527.18606 175.78648,575.36548 176.62837,588.36326 L 177.02957,594.55744 L 170.57151,594.34691 C 164.40976,594.14605 164.81488,594.47431 179.40119,601.50118 L 194.68894,608.86596 L 223.80035,584.72515 C 239.81163,571.4477 257.05871,557.12382 262.12719,552.89428 z M 118.22723,517.25931 C 118.15713,515.6269 118.53872,514.71228 119.07521,515.22684 C 119.6117,515.74142 119.66906,517.07703 119.20267,518.19489 C 118.68727,519.43021 118.30471,519.06328 118.22723,517.25931 z M 121.04641,455.21026 C 107.44959,451.21032 93.882051,445.80904 93.882051,444.39604 C 93.882051,443.90042 95.880011,444.47348 98.321966,445.6695 C 104.33964,448.61682 129.8552,455.96281 134.07478,455.96281 C 136.09033,455.96281 137.47396,454.97108 137.47396,453.52645 C 137.47396,449.73701 143.04745,451.6034 143.64068,455.59149 C 144.08854,458.60242 143.4497,459.04642 138.79713,458.95771 C 135.84943,458.90152 127.8616,457.21517 121.04641,455.21026 z M 110.0272,439.65532 C 94.411114,435.01982 91.637887,434.90365 92.735919,438.93096 C 93.200668,440.63554 92.922139,441.63968 92.116968,441.16238 C 91.311796,440.68509 90.653018,438.2319 90.653018,435.71084 C 90.653018,430.47783 90.485521,430.47316 110.83446,436.27335 C 117.05034,438.0451 122.65481,439.37575 123.28884,439.23036 C 123.92288,439.08495 124.02678,440.00288 123.51974,441.27022 C 123.0127,442.53755 122.49395,443.5014 122.36695,443.41209 C 122.23997,443.32279 116.68708,441.63224 110.0272,439.65532 z M 125.36509,424.02668 C 114.78241,421.86231 95.534895,416.69627 96.085625,416.16804 C 96.443953,415.82436 102.57294,416.97229 109.7056,418.719 C 125.84537,422.67147 127.78686,422.68349 127.78686,418.83096 C 127.78686,416.11224 128.24869,415.96889 131.8861,417.55849 C 139.67995,420.9645 134.67348,425.93042 125.36509,424.02668 z M 89.038504,414.15213 C 87.706529,413.32651 87.343266,412.65102 88.231248,412.65102 C 89.119229,412.65102 90.935562,413.32651 92.267538,414.15213 C 93.599513,414.97775 93.962776,415.65324 93.074794,415.65324 C 92.186813,415.65324 90.37048,414.97775 89.038504,414.15213 z M 80.278207,405.17369 C 79.56948,403.06069 79.851864,400.72849 80.973359,399.43239 C 83.020189,397.06688 85.374118,397.26091 104.82111,401.3982 C 114.18715,403.39079 116.15014,404.2828 114.5082,405.80016 C 112.87731,407.30727 109.7137,407.12592 99.299394,404.92833 C 85.90906,402.10273 83.678317,402.29672 82.268197,406.40942 C 81.687067,408.10431 81.149115,407.77026 80.278207,405.17369 z " />
      <path
         style="fill:#2b2bb0"
         id="path1336"
         d="M 363.94924,634.83727 C 336.84825,627.58513 319.85912,612.02909 319.9586,594.55744 C 319.99283,588.54647 325.40898,577.13267 330.78959,571.73258 C 333.11446,569.39929 334.70632,567.25964 334.32707,566.97782 C 332.19976,565.39696 277.82625,547.1145 276.58616,547.5631 C 275.7681,547.85902 258.29277,562.03803 237.75207,579.072 C 217.21137,596.10598 198.8798,610.70636 197.01523,611.51728 C 194.24554,612.72187 187.54978,610.02957 160.42846,596.80612 L 127.23182,580.62055 L 124.20787,572.10356 C 113.89413,543.05483 59.977239,372.6744 59.977239,369.13112 C 59.977239,365.30519 61.019605,364.44505 69.2607,361.4706 C 82.4914,356.69525 217.93855,311.82724 224.33658,310.10041 C 230.12197,308.53892 300.36932,312.81015 302.56811,314.8571 C 303.2396,315.48222 304.65411,325.14964 305.71146,336.34026 L 307.63393,356.68684 L 313.37039,357.56185 C 316.52546,358.0431 360.74007,363.30773 411.62509,369.26102 C 462.51011,375.21431 509.20823,381.19011 515.39868,382.54057 C 526.65915,384.99706 534.57954,389.66602 538.0563,395.89694 C 541.41795,401.92156 542.57686,417.68541 540.92901,434.97214 C 537.48816,471.06802 521.69782,564.48847 515.13301,587.58899 C 505.85778,620.22705 499.0405,623.42097 462.98974,612.01824 L 447.0304,606.97036 L 444.4202,610.81553 C 438.35744,619.74682 430.30701,626.58483 420.27979,631.32035 C 410.31062,636.02845 408.33965,636.39256 390.98863,636.73149 C 378.54999,636.97447 369.59036,636.34682 363.94924,634.83727 z M 414.18728,630.4504 C 419.14216,628.27468 425.66674,624.68712 428.68635,622.47806 C 434.42582,618.27923 443.66932,606.66438 442.30943,605.36007 C 441.87629,604.94463 432.87464,601.55756 422.30577,597.83327 L 403.08965,591.06182 L 401.3049,595.13304 C 397.5841,603.62058 396.16616,603.68726 376.2332,596.31198 L 357.85524,589.51208 L 357.37664,581.84222 L 356.89804,574.17236 L 347.95572,571.46873 C 339.36948,568.87275 338.88283,568.8778 335.73458,571.59573 C 329.88874,576.64247 323.17436,589.56271 323.15831,595.79575 C 323.13808,603.65218 326.35675,609.1778 335.40134,616.81386 C 356.15829,634.33828 391.43012,640.44326 414.18728,630.4504 z M 500.58749,610.48464 C 507.33549,603.86468 512.21841,588.64267 519.25419,552.29323 C 532.23689,485.21985 540.69456,422.15131 538.54787,408.42108 C 537.27628,400.28796 532.31109,392.81731 525.7593,389.17923 C 523.09837,387.70168 515.10899,385.3998 508.00512,384.06395 C 489.63963,380.61041 285.74876,356.85603 274.47137,356.85603 C 260.89873,356.85603 259.54184,359.32737 258.78121,385.43317 C 258.07642,409.62241 261.39592,504.652 263.51253,520.87958 C 265.93901,539.48307 265.60689,539.23743 308.76751,554.35202 C 321.72852,558.89088 339.89181,565.50681 349.13038,569.0541 C 358.36897,572.60138 381.18498,580.72973 399.83263,587.11709 C 493.5,619.20085 492.0464,618.86373 500.58749,610.48464 z M 455.53339,575.07458 C 446.84751,573.72474 385.78215,555.41845 332.023,538.04841 C 305.13547,529.36082 292.06645,524.37706 289.32759,521.7669 C 286.2788,518.86138 285.10354,515.61505 284.16332,507.50226 C 282.36613,491.99457 282.50844,402.65121 284.3377,398.03649 C 285.19428,395.87559 287.55551,393.71261 289.58488,393.22989 C 297.14422,391.43175 429.6128,416.7599 468.23274,427.38755 C 487.27648,432.62811 486.83202,432.03781 485.51748,450.34394 C 483.46209,478.96735 473.32793,555.25265 469.91149,567.81872 C 467.9704,574.95828 464.86595,576.52493 455.53339,575.07458 z M 235.70951,576.03748 L 273.07066,545.12918 L 268.21143,540.32057 C 265.53884,537.67584 262.68089,533.26699 261.86044,530.5231 C 259.68643,523.25253 256.82774,458.78736 256.45965,408.73223 C 256.03443,350.90863 255.15765,352.44627 287.41102,354.45127 L 304.75084,355.52919 L 302.86418,337.51022 C 301.82651,327.59978 300.19994,318.74545 299.24957,317.83391 C 298.29922,316.92239 282.26882,315.13113 263.62646,313.85335 L 229.73126,311.53011 L 149.29417,338.23198 C 105.05376,352.91801 67.58564,365.57982 66.031667,366.36933 C 64.477694,367.15884 63.206266,369.15567 63.206266,370.80673 C 63.206266,373.56779 109.05843,518.04665 122.42155,557.3924 C 125.60346,566.76108 129.32091,575.65237 130.68253,577.15082 C 134.65294,581.52017 193.85348,609.50078 196.24795,608.13971 C 197.40319,607.48305 215.16089,593.03705 235.70951,576.03748 z " />
      <path
         style="fill:#1919a4"
         id="path1334"
         d="M 363.94924,634.83727 C 336.84825,627.58513 319.85912,612.02909 319.9586,594.55744 C 319.99283,588.54647 325.40898,577.13267 330.78959,571.73258 C 333.11446,569.39929 334.70632,567.25964 334.32707,566.97782 C 332.19976,565.39696 277.82625,547.1145 276.58616,547.5631 C 275.7681,547.85902 258.29277,562.03803 237.75207,579.072 C 217.21137,596.10598 198.8798,610.70636 197.01523,611.51728 C 194.24554,612.72187 187.54978,610.02957 160.42846,596.80612 L 127.23182,580.62055 L 124.20787,572.10356 C 113.89413,543.05483 59.977239,372.6744 59.977239,369.13112 C 59.977239,365.30519 61.019605,364.44505 69.2607,361.4706 C 82.4914,356.69525 217.93855,311.82724 224.33658,310.10041 C 230.12197,308.53892 300.36932,312.81015 302.56811,314.8571 C 303.2396,315.48222 304.65411,325.14964 305.71146,336.34026 L 307.63393,356.68684 L 313.37039,357.56185 C 316.52546,358.0431 360.74007,363.30773 411.62509,369.26102 C 462.51011,375.21431 509.20823,381.19011 515.39868,382.54057 C 526.65915,384.99706 534.57954,389.66602 538.0563,395.89694 C 541.41795,401.92156 542.57686,417.68541 540.92901,434.97214 C 537.48816,471.06802 521.69782,564.48847 515.13301,587.58899 C 505.85778,620.22705 499.0405,623.42097 462.98974,612.01824 L 447.0304,606.97036 L 444.4202,610.81553 C 438.35744,619.74682 430.30701,626.58483 420.27979,631.32035 C 410.31062,636.02845 408.33965,636.39256 390.98863,636.73149 C 378.54999,636.97447 369.59036,636.34682 363.94924,634.83727 z M 414.18728,630.4504 C 419.14216,628.27468 425.66674,624.68712 428.68635,622.47806 C 434.42582,618.27923 443.66932,606.66438 442.30943,605.36007 C 441.87629,604.94463 432.87464,601.55756 422.30577,597.83327 L 403.08965,591.06182 L 401.3049,595.13304 C 397.5841,603.62058 396.16616,603.68726 376.2332,596.31198 L 357.85524,589.51208 L 357.37664,581.84222 L 356.89804,574.17236 L 347.95572,571.46873 C 339.36948,568.87275 338.88283,568.8778 335.73458,571.59573 C 329.88874,576.64247 323.17436,589.56271 323.15831,595.79575 C 323.13808,603.65218 326.35675,609.1778 335.40134,616.81386 C 356.15829,634.33828 391.43012,640.44326 414.18728,630.4504 z M 500.58749,610.48464 C 507.33549,603.86468 512.21841,588.64267 519.25419,552.29323 C 532.23689,485.21985 540.69456,422.15131 538.54787,408.42108 C 537.27628,400.28796 532.31109,392.81731 525.7593,389.17923 C 523.09837,387.70168 515.10899,385.3998 508.00512,384.06395 C 489.63963,380.61041 285.74876,356.85603 274.47137,356.85603 C 260.89873,356.85603 259.54184,359.32737 258.78121,385.43317 C 258.07642,409.62241 261.39592,504.652 263.51253,520.87958 C 265.93901,539.48307 265.60689,539.23743 308.76751,554.35202 C 321.72852,558.89088 339.89181,565.50681 349.13038,569.0541 C 358.36897,572.60138 381.18498,580.72973 399.83263,587.11709 C 493.5,619.20085 492.0464,618.86373 500.58749,610.48464 z M 440.1955,559.7761 C 394.68077,548.35022 303.09882,520.94563 293.34432,515.83299 C 289.55227,513.84545 286.50092,510.91127 285.83631,508.61328 C 283.74698,501.389 284.19633,411.86482 286.33223,409.81621 C 287.39781,408.79417 290.50781,407.95796 293.24337,407.95796 C 297.4944,407.95796 371.01886,423.689 387.72376,428.17266 C 395.47321,430.25265 421.15694,452.0638 436.95186,469.97816 C 457.08665,492.81475 467.58713,502.63931 470.65374,501.51062 C 473.93978,500.30118 477.16629,489.51192 480.55746,468.39316 C 483.13826,452.32105 484.59466,447.32554 484.59466,454.54537 C 484.59466,467.58748 472.22787,557.3132 469.83244,561.65089 C 467.73344,565.45179 461.14401,565.03495 440.1955,559.7761 z M 235.70951,576.03748 L 273.07066,545.12918 L 268.21143,540.32057 C 265.53884,537.67584 262.68089,533.26699 261.86044,530.5231 C 259.68643,523.25253 256.82774,458.78736 256.45965,408.73223 C 256.03443,350.90863 255.15765,352.44627 287.41102,354.45127 L 304.75084,355.52919 L 302.86418,337.51022 C 301.82651,327.59978 300.19994,318.74545 299.24957,317.83391 C 298.29922,316.92239 282.26882,315.13113 263.62646,313.85335 L 229.73126,311.53011 L 149.29417,338.23198 C 105.05376,352.91801 67.58564,365.57982 66.031667,366.36933 C 64.477694,367.15884 63.206266,369.15567 63.206266,370.80673 C 63.206266,373.56779 109.05843,518.04665 122.42155,557.3924 C 125.60346,566.76108 129.32091,575.65237 130.68253,577.15082 C 134.65294,581.52017 193.85348,609.50078 196.24795,608.13971 C 197.40319,607.48305 215.16089,593.03705 235.70951,576.03748 z " />
      <path
         style="fill:#0c0c95"
         id="path1332"
         d="M 363.94924,634.83727 C 336.84825,627.58513 319.85912,612.02909 319.9586,594.55744 C 319.99283,588.54647 325.40898,577.13267 330.78959,571.73258 C 333.11446,569.39929 334.70632,567.25964 334.32707,566.97782 C 332.19976,565.39696 277.82625,547.1145 276.58616,547.5631 C 275.7681,547.85902 258.29277,562.03803 237.75207,579.072 C 217.21137,596.10598 198.8798,610.70636 197.01523,611.51728 C 194.24554,612.72187 187.54978,610.02957 160.42846,596.80612 L 127.23182,580.62055 L 124.20787,572.10356 C 113.89413,543.05483 59.977239,372.6744 59.977239,369.13112 C 59.977239,365.30519 61.019605,364.44505 69.2607,361.4706 C 82.4914,356.69525 217.93855,311.82724 224.33658,310.10041 C 230.12197,308.53892 300.36932,312.81015 302.56811,314.8571 C 303.2396,315.48222 304.65411,325.14964 305.71146,336.34026 L 307.63393,356.68684 L 313.37039,357.56185 C 316.52546,358.0431 360.74007,363.30773 411.62509,369.26102 C 462.51011,375.21431 509.20823,381.19011 515.39868,382.54057 C 526.65915,384.99706 534.57954,389.66602 538.0563,395.89694 C 541.41795,401.92156 542.57686,417.68541 540.92901,434.97214 C 537.48816,471.06802 521.69782,564.48847 515.13301,587.58899 C 505.85778,620.22705 499.0405,623.42097 462.98974,612.01824 L 447.0304,606.97036 L 444.4202,610.81553 C 438.35744,619.74682 430.30701,626.58483 420.27979,631.32035 C 410.31062,636.02845 408.33965,636.39256 390.98863,636.73149 C 378.54999,636.97447 369.59036,636.34682 363.94924,634.83727 z M 414.18728,630.4504 C 419.14216,628.27468 425.66674,624.68712 428.68635,622.47806 C 434.42582,618.27923 443.66932,606.66438 442.30943,605.36007 C 441.87629,604.94463 432.87464,601.55756 422.30577,597.83327 L 403.08965,591.06182 L 401.3049,595.13304 C 397.5841,603.62058 396.16616,603.68726 376.2332,596.31198 L 357.85524,589.51208 L 357.37664,581.84222 L 356.89804,574.17236 L 347.95572,571.46873 C 339.36948,568.87275 338.88283,568.8778 335.73458,571.59573 C 329.88874,576.64247 323.17436,589.56271 323.15831,595.79575 C 323.13808,603.65218 326.35675,609.1778 335.40134,616.81386 C 356.15829,634.33828 391.43012,640.44326 414.18728,630.4504 z M 500.58749,610.48464 C 507.33549,603.86468 512.21841,588.64267 519.25419,552.29323 C 532.23689,485.21985 540.69456,422.15131 538.54787,408.42108 C 537.27628,400.28796 532.31109,392.81731 525.7593,389.17923 C 523.09837,387.70168 515.10899,385.3998 508.00512,384.06395 C 489.63963,380.61041 285.74876,356.85603 274.47137,356.85603 C 260.89873,356.85603 259.54184,359.32737 258.78121,385.43317 C 258.07642,409.62241 261.39592,504.652 263.51253,520.87958 C 265.93901,539.48307 265.60689,539.23743 308.76751,554.35202 C 321.72852,558.89088 339.89181,565.50681 349.13038,569.0541 C 358.36897,572.60138 381.18498,580.72973 399.83263,587.11709 C 493.5,619.20085 492.0464,618.86373 500.58749,610.48464 z M 456.34064,558.64063 C 408.33561,548.00633 306.17148,519.28172 292.84526,512.67206 C 284.97733,508.76965 284.03023,503.24447 284.65486,464.89124 C 285.36741,421.14003 284.33714,422.44927 308.42552,434.68384 C 318.04618,439.57019 336.53114,448.01287 349.50324,453.44537 C 391.61717,471.08196 406.58593,482.26446 437.12905,518.90674 C 447.32369,531.13715 457.45516,542.26904 459.64344,543.64426 C 467.24621,548.42224 469.38704,544.09081 475.80961,510.93609 C 478.98454,494.54646 479.55303,492.81965 478.86844,501.64483 C 477.88832,514.27964 472.06248,553.85662 470.67061,557.33555 C 469.73587,559.67191 463.54232,560.23598 456.34064,558.64063 z M 480.12568,485.38513 C 480.12568,482.40418 480.45795,481.18471 480.86405,482.67517 C 481.27013,484.16565 481.27013,486.60461 480.86405,488.09508 C 480.45795,489.58555 480.12568,488.36608 480.12568,485.38513 z M 481.68037,472.22251 C 481.64747,469.66742 481.98239,468.43468 482.42465,469.48309 C 482.8669,470.5315 482.89382,472.62204 482.48447,474.12872 C 482.07512,475.6354 481.71328,474.77761 481.68037,472.22251 z M 235.70951,576.03748 L 273.07066,545.12918 L 268.21143,540.32057 C 265.53884,537.67584 262.68089,533.26699 261.86044,530.5231 C 259.68643,523.25253 256.82774,458.78736 256.45965,408.73223 C 256.03443,350.90863 255.15765,352.44627 287.41102,354.45127 L 304.75084,355.52919 L 302.86418,337.51022 C 301.82651,327.59978 300.19994,318.74545 299.24957,317.83391 C 298.29922,316.92239 282.26882,315.13113 263.62646,313.85335 L 229.73126,311.53011 L 149.29417,338.23198 C 105.05376,352.91801 67.58564,365.57982 66.031667,366.36933 C 64.477694,367.15884 63.206266,369.15567 63.206266,370.80673 C 63.206266,373.56779 109.05843,518.04665 122.42155,557.3924 C 125.60346,566.76108 129.32091,575.65237 130.68253,577.15082 C 134.65294,581.52017 193.85348,609.50078 196.24795,608.13971 C 197.40319,607.48305 215.16089,593.03705 235.70951,576.03748 z " />
      <path
         style="fill:#030303"
         id="path1330"
         d="M 363.94924,634.83727 C 336.84825,627.58513 319.85912,612.02909 319.9586,594.55744 C 319.99283,588.54647 325.40898,577.13267 330.78959,571.73258 C 333.11446,569.39929 334.70632,567.25964 334.32707,566.97782 C 332.19976,565.39696 277.82625,547.1145 276.58616,547.5631 C 275.7681,547.85902 258.29277,562.03803 237.75207,579.072 C 217.21137,596.10598 198.8798,610.70636 197.01523,611.51728 C 194.24554,612.72187 187.54978,610.02957 160.42846,596.80612 L 127.23182,580.62055 L 124.20787,572.10356 C 113.89413,543.05483 59.977239,372.6744 59.977239,369.13112 C 59.977239,365.30519 61.019605,364.44505 69.2607,361.4706 C 82.4914,356.69525 217.93855,311.82724 224.33658,310.10041 C 230.12197,308.53892 300.36932,312.81015 302.56811,314.8571 C 303.2396,315.48222 304.65411,325.14964 305.71146,336.34026 L 307.63393,356.68684 L 313.37039,357.56185 C 316.52546,358.0431 360.74007,363.30773 411.62509,369.26102 C 462.51011,375.21431 509.20823,381.19011 515.39868,382.54057 C 526.65915,384.99706 534.57954,389.66602 538.0563,395.89694 C 541.41795,401.92156 542.57686,417.68541 540.92901,434.97214 C 537.48816,471.06802 521.69782,564.48847 515.13301,587.58899 C 505.85778,620.22705 499.0405,623.42097 462.98974,612.01824 L 447.0304,606.97036 L 444.4202,610.81553 C 438.35744,619.74682 430.30701,626.58483 420.27979,631.32035 C 410.31062,636.02845 408.33965,636.39256 390.98863,636.73149 C 378.54999,636.97447 369.59036,636.34682 363.94924,634.83727 z M 414.18728,630.4504 C 419.14216,628.27468 425.66674,624.68712 428.68635,622.47806 C 434.42582,618.27923 443.66932,606.66438 442.30943,605.36007 C 441.87629,604.94463 432.87464,601.55756 422.30577,597.83327 L 403.08965,591.06182 L 401.3049,595.13304 C 397.5841,603.62058 396.16616,603.68726 376.2332,596.31198 L 357.85524,589.51208 L 357.37664,581.84222 L 356.89804,574.17236 L 347.95572,571.46873 C 339.36948,568.87275 338.88283,568.8778 335.73458,571.59573 C 329.88874,576.64247 323.17436,589.56271 323.15831,595.79575 C 323.13808,603.65218 326.35675,609.1778 335.40134,616.81386 C 356.15829,634.33828 391.43012,640.44326 414.18728,630.4504 z M 500.58749,610.48464 C 507.33549,603.86468 512.21841,588.64267 519.25419,552.29323 C 532.23689,485.21985 540.69456,422.15131 538.54787,408.42108 C 537.27628,400.28796 532.31109,392.81731 525.7593,389.17923 C 523.09837,387.70168 515.10899,385.3998 508.00512,384.06395 C 489.63963,380.61041 285.74876,356.85603 274.47137,356.85603 C 260.89873,356.85603 259.54184,359.32737 258.78121,385.43317 C 258.07642,409.62241 261.39592,504.652 263.51253,520.87958 C 265.93901,539.48307 265.60689,539.23743 308.76751,554.35202 C 321.72852,558.89088 339.89181,565.50681 349.13038,569.0541 C 358.36897,572.60138 381.18498,580.72973 399.83263,587.11709 C 493.5,619.20085 492.0464,618.86373 500.58749,610.48464 z M 235.70951,576.03748 L 273.07066,545.12918 L 268.21143,540.32057 C 265.53884,537.67584 262.68089,533.26699 261.86044,530.5231 C 259.68643,523.25253 256.82774,458.78736 256.45965,408.73223 C 256.03443,350.90863 255.15765,352.44627 287.41102,354.45127 L 304.75084,355.52919 L 302.86418,337.51022 C 301.82651,327.59978 300.19994,318.74545 299.24957,317.83391 C 298.29922,316.92239 282.26882,315.13113 263.62646,313.85335 L 229.73126,311.53011 L 149.29417,338.23198 C 105.05376,352.91801 67.58564,365.57982 66.031667,366.36933 C 64.477694,367.15884 63.206266,369.15567 63.206266,370.80673 C 63.206266,373.56779 109.05843,518.04665 122.42155,557.3924 C 125.60346,566.76108 129.32091,575.65237 130.68253,577.15082 C 134.65294,581.52017 193.85348,609.50078 196.24795,608.13971 C 197.40319,607.48305 215.16089,593.03705 235.70951,576.03748 z " />
    </g>
    <path
       style="fill:none;fill-rule:evenodd;stroke:#000000;stroke-width:1px;stroke-linecap:butt;stroke-linejoin:miter;stroke-opacity:1"
       d="M 131.36974,16.867917 C 131.46473,16.867917 131.55972,16.867917 131.36974,16.867917 z "
       id="path3532"
       transform="translate(-1322.3381,16.126007)" />
    <path
       style="fill:#d4aa00;fill-rule:evenodd;stroke:#000000;stroke-width:0.85737121px;stroke-linecap:butt;stroke-linejoin:miter;marker-end:url(#Arrow1Mend);stroke-opacity:1"
       d="M -1277.0997,36.057246 L -1231.1589,35.618318"
       id="path3534"
       sodipodi:nodetypes="cc" />
    <path
       style="fill:#d4aa00;fill-rule:evenodd;stroke:#000000;stroke-width:0.85737121px;stroke-linecap:butt;stroke-linejoin:miter;marker-end:url(#Arrow1Mend);stroke-opacity:1"
       d="M -1206.8404,41.892054 L -1199.9399,56.271405"
       id="path4703"
       sodipodi:nodetypes="cc" />
    <path
       style="fill:#d4aa00;fill-rule:evenodd;stroke:#000000;stroke-width:0.85737121px;stroke-linecap:butt;stroke-linejoin:miter;marker-end:url(#Arrow1Mend);stroke-opacity:1"
       d="M -1250.7253,129.94683 L -1268.0471,106.71054"
       id="path4705"
       sodipodi:nodetypes="cc" />
    <path
       style="fill:#d4aa00;fill-rule:evenodd;stroke:#000000;stroke-width:0.85737121px;stroke-linecap:butt;stroke-linejoin:miter;marker-end:url(#Arrow1Mend);stroke-opacity:1"
       d="M -1196.2966,121.6828 L -1227.5819,135.20724"
       id="path4707"
       sodipodi:nodetypes="cc" />
    <path
       style="fill:#d4aa00;fill-rule:evenodd;stroke:#000000;stroke-width:0.85737121px;stroke-linecap:butt;stroke-linejoin:miter;marker-end:url(#Arrow1Mend);stroke-opacity:1"
       d="M -1191.4522,77.797884 L -1188.8264,107.56545"
       id="path4709"
       sodipodi:nodetypes="cc" />
    <path
       style="fill:#d4aa00;fill-rule:evenodd;stroke:#000000;stroke-width:0.85737121px;stroke-linecap:butt;stroke-linejoin:miter;marker-end:url(#Arrow1Mend);stroke-opacity:1"
       d="M -1250.5354,93.592366 L -1227.9618,76.625355"
       id="path4711"
       sodipodi:nodetypes="cc" />
    <path
       style="fill:#d4aa00;fill-rule:evenodd;stroke:#000000;stroke-width:0.85737121px;stroke-linecap:butt;stroke-linejoin:miter;marker-end:url(#Arrow1Mend);stroke-opacity:1"
       d="M -1283.5927,54.407349 L -1290.6558,45.134444"
       id="path4713"
       sodipodi:nodetypes="cc" />
    <path
       style="fill:#d4aa00;fill-rule:evenodd;stroke:#000000;stroke-width:0.85737121px;stroke-linecap:butt;stroke-linejoin:miter;marker-end:url(#Arrow1Mend);stroke-opacity:1"
       d="M -1225.4594,64.951124 L -1244.4911,60.237691"
       id="path4715"
       sodipodi:nodetypes="cc" />
    <rect
       style="fill:#ffffff;fill-opacity:1;stroke:#000000;stroke-width:0.09928115;stroke-miterlimit:4;stroke-dasharray:none;stroke-dashoffset:0;stroke-opacity:1"
       id="rect4723"
       width="45.125488"
       height="13.438625"
       x="-1220.0853"
       y="109.33604" />
    <path
       sodipodi:type="arc"
       style="fill:#afc6e9;fill-opacity:1;stroke:#000000;stroke-width:0.2;stroke-miterlimit:4;stroke-dasharray:none;stroke-dashoffset:0;stroke-opacity:1"
       id="path4725"
       sodipodi:cx="211.58792"
       sodipodi:cy="18.435234"
       sodipodi:rx="4.13202"
       sodipodi:ry="3.8470533"
       d="m 215.71994,18.435234 c 0,2.124669 -1.84997,3.847053 -4.13202,3.847053 -2.28205,0 -4.13202,-1.722384 -4.13202,-3.847053 0,-2.124669 1.84997,-3.847053 4.13202,-3.847053 2.28205,0 4.13202,1.722384 4.13202,3.847053 z"
       transform="translate(-1409.1105,89.383842)" />
    <rect
       style="fill:#ffffff;fill-opacity:1;stroke:#000000;stroke-width:0.09928115;stroke-miterlimit:4;stroke-dasharray:none;stroke-dashoffset:0;stroke-opacity:1"
       id="rect4729"
       width="45.125488"
       height="13.438625"
       x="-1282.7781"
       y="92.522987" />
    <path
       sodipodi:type="arc"
       style="fill:#afc6e9;fill-opacity:1;stroke:#000000;stroke-width:0.2;stroke-miterlimit:4;stroke-dasharray:none;stroke-dashoffset:0;stroke-opacity:1"
       id="path4731"
       sodipodi:cx="211.58792"
       sodipodi:cy="18.435234"
       sodipodi:rx="4.13202"
       sodipodi:ry="3.8470533"
       d="m 215.71994,18.435234 c 0,2.124669 -1.84997,3.847053 -4.13202,3.847053 -2.28205,0 -4.13202,-1.722384 -4.13202,-3.847053 0,-2.124669 1.84997,-3.847053 4.13202,-3.847053 2.28205,0 4.13202,1.722384 4.13202,3.847053 z"
       transform="translate(-1471.8032,72.570796)" />
    <rect
       style="fill:#ffffff;fill-opacity:1;stroke:#000000;stroke-width:0.09928115;stroke-miterlimit:4;stroke-dasharray:none;stroke-dashoffset:0;stroke-opacity:1"
       id="rect4735"
       width="45.125488"
       height="13.438625"
       x="-1291.0421"
       y="54.337421" />
    <path
       sodipodi:type="arc"
       style="fill:#afc6e9;fill-opacity:1;stroke:#000000;stroke-width:0.2;stroke-miterlimit:4;stroke-dasharray:none;stroke-dashoffset:0;stroke-opacity:1"
       id="path4737"
       sodipodi:cx="211.58792"
       sodipodi:cy="18.435234"
       sodipodi:rx="4.13202"
       sodipodi:ry="3.8470533"
       d="m 215.71994,18.435234 c 0,2.124669 -1.84997,3.847053 -4.13202,3.847053 -2.28205,0 -4.13202,-1.722384 -4.13202,-3.847053 0,-2.124669 1.84997,-3.847053 4.13202,-3.847053 2.28205,0 4.13202,1.722384 4.13202,3.847053 z"
       transform="translate(-1480.0672,34.385229)" />
    <text
       xml:space="preserve"
       style="font-size:12px;font-style:normal;font-weight:normal;fill:#000000;fill-opacity:1;stroke:none;stroke-width:1px;stroke-linecap:butt;stroke-linejoin:miter;stroke-opacity:1;font-family:Bitstream Vera Sans"
       x="-1199.1571"
       y="109.47776"
       id="text5807"><tspan
         sodipodi:role="line"
         id="tspan5809"
         x="-1199.1571"
         y="109.47776"
         style="font-size:5px;font-family:Bitstream Vera Sans">2</tspan></text>
    <text
       xml:space="preserve"
       style="font-size:12px;font-style:normal;font-weight:normal;fill:#000000;fill-opacity:1;stroke:none;stroke-width:1px;stroke-linecap:butt;stroke-linejoin:miter;stroke-opacity:1;font-family:Bitstream Vera Sans"
       x="-1261.8499"
       y="92.949684"
       id="text5811"><tspan
         sodipodi:role="line"
         id="tspan5813"
         x="-1261.8499"
         y="92.949684"
         style="font-size:5px;font-family:Bitstream Vera Sans">3</tspan></text>
    <text
       xml:space="preserve"
       style="font-size:12px;font-style:normal;font-weight:normal;fill:#000000;fill-opacity:1;stroke:none;stroke-width:1px;stroke-linecap:butt;stroke-linejoin:miter;stroke-opacity:1;font-family:Bitstream Vera Sans"
       x="-1270.1139"
       y="54.479149"
       id="text5815"><tspan
         sodipodi:role="line"
         id="tspan5817"
         x="-1270.1139"
         y="54.479149"
         style="font-size:5px;font-family:Bitstream Vera Sans">4</tspan></text>
    <text
       xml:space="preserve"
       style="font-size:12px;font-style:normal;font-weight:normal;text-align:center;text-anchor:middle;fill:#000000;fill-opacity:1;stroke:none;stroke-width:1px;stroke-linecap:butt;stroke-linejoin:miter;stroke-opacity:1;font-family:Bitstream Vera Sans"
       x="-1197.5226"
       y="115.91928"
       id="text5837"><tspan
         sodipodi:role="line"
         id="tspan5839"
         x="-1197.045"
         y="115.91928"
         style="font-size:3px;text-align:center;text-anchor:middle">La peticin de la pagina </tspan><tspan
         sodipodi:role="line"
         x="-1197.5226"
         y="119.66928"
         id="tspan5841"
         style="font-size:3px;text-align:center;text-anchor:middle">se manda al servidor</tspan></text>
    <text
       xml:space="preserve"
       style="font-size:12px;font-style:normal;font-weight:normal;text-align:center;text-anchor:middle;fill:#000000;fill-opacity:1;stroke:none;stroke-width:1px;stroke-linecap:butt;stroke-linejoin:miter;stroke-opacity:1;font-family:Bitstream Vera Sans"
       x="-1261.0673"
       y="98.913788"
       id="text5843"><tspan
         sodipodi:role="line"
         x="-1260.5897"
         y="98.913788"
         id="tspan5847"
         style="font-size:3px;text-align:center;text-anchor:middle">La pgina se manda  </tspan><tspan
         sodipodi:role="line"
         x="-1261.0673"
         y="102.66379"
         style="font-size:3px;text-align:center;text-anchor:middle"
         id="tspan5851">al usuario</tspan></text>
    <text
       xml:space="preserve"
       style="font-size:12px;font-style:normal;font-weight:normal;text-align:center;text-anchor:middle;fill:#000000;fill-opacity:1;stroke:none;stroke-width:1px;stroke-linecap:butt;stroke-linejoin:miter;stroke-opacity:1;font-family:Bitstream Vera Sans"
       x="-1268.1914"
       y="60.443253"
       id="text5853"><tspan
         sodipodi:role="line"
         x="-1267.7139"
         y="60.443253"
         id="tspan5857"
         style="font-size:3px;text-align:center;text-anchor:middle">El cliente Web recibe la </tspan><tspan
         sodipodi:role="line"
         x="-1268.1914"
         y="64.193253"
         style="font-size:3px;text-align:center;text-anchor:middle"
         id="tspan5861">pgina</tspan></text>
    <g
       id="g4739"
       transform="translate(-21.657485,2.5647021)">
      <g
         inkscape:label="Layer 1"
         id="g2523"
         transform="matrix(8.9792975e-2,0,0,8.9792975e-2,-1218.1921,30.664073)">
        <g
           id="g33001">
          <path
             transform="matrix(0.888116,0,0,1,39.102941,130.88644)"
             d="m 331.42857,252.36218 c 0,33.13709 -50.52787,60 -112.85714,60 -62.32928,0 -112.85714,-26.86291 -112.85714,-60 0,-33.13708 50.52786,-60 112.85714,-60 62.32927,0 112.85714,26.86292 112.85714,60 z"
             sodipodi:ry="60"
             sodipodi:rx="112.85714"
             sodipodi:cy="252.36218"
             sodipodi:cx="218.57143"
             id="path7384"
             style="fill:url(#radialGradient4755);fill-opacity:1;fill-rule:evenodd;stroke:#000000;stroke-width:1.06112158;stroke-linecap:butt;stroke-linejoin:miter;stroke-miterlimit:4;stroke-dasharray:none;stroke-dashoffset:1;stroke-opacity:0.54597701;filter:url(#filter17207)"
             sodipodi:type="arc" />
          <path
             transform="matrix(0.5972176,0,0,1.134687,231.94715,61.254038)"
             d="m 331.42857,252.36218 c 0,33.13709 -50.52787,60 -112.85714,60 -62.32928,0 -112.85714,-26.86291 -112.85714,-60 0,-33.13708 50.52786,-60 112.85714,-60 62.32927,0 112.85714,26.86292 112.85714,60 z"
             sodipodi:ry="60"
             sodipodi:rx="112.85714"
             sodipodi:cy="252.36218"
             sodipodi:cx="218.57143"
             id="path7386"
             style="fill:url(#radialGradient4757);fill-opacity:1;fill-rule:evenodd;stroke:#000000;stroke-width:1.21477449;stroke-linecap:butt;stroke-linejoin:miter;stroke-miterlimit:4;stroke-dasharray:none;stroke-dashoffset:1;stroke-opacity:0.54597701;filter:url(#filter17203)"
             sodipodi:type="arc" />
          <path
             transform="matrix(1,0,0,1.2188664,48.500728,148.78483)"
             d="m 331.42857,252.36218 c 0,33.13709 -50.52787,60 -112.85714,60 -62.32928,0 -112.85714,-26.86291 -112.85714,-60 0,-33.13708 50.52786,-60 112.85714,-60 62.32927,0 112.85714,26.86292 112.85714,60 z"
             sodipodi:ry="60"
             sodipodi:rx="112.85714"
             sodipodi:cy="252.36218"
             sodipodi:cx="218.57143"
             id="path7388"
             style="fill:url(#radialGradient4759);fill-opacity:1;fill-rule:evenodd;stroke:#000000;stroke-width:0.90577835;stroke-linecap:butt;stroke-linejoin:miter;stroke-miterlimit:4;stroke-dasharray:none;stroke-dashoffset:1;stroke-opacity:0.54597701;filter:url(#filter17199)"
             sodipodi:type="arc" />
          <path
             transform="matrix(1.3132752,0,0,1.3703892,104.7616,107.6593)"
             d="m 331.42857,252.36218 c 0,33.13709 -50.52787,60 -112.85714,60 -62.32928,0 -112.85714,-26.86291 -112.85714,-60 0,-33.13708 50.52786,-60 112.85714,-60 62.32927,0 112.85714,26.86292 112.85714,60 z"
             sodipodi:ry="60"
             sodipodi:rx="112.85714"
             sodipodi:cy="252.36218"
             sodipodi:cx="218.57143"
             id="path7390"
             style="fill:url(#radialGradient4761);fill-opacity:1;fill-rule:evenodd;stroke:#000000;stroke-width:0.74541849;stroke-linecap:butt;stroke-linejoin:miter;stroke-miterlimit:4;stroke-dasharray:none;stroke-dashoffset:1;stroke-opacity:0.54597701;filter:url(#filter17195)"
             sodipodi:type="arc" />
          <path
             transform="translate(288.41662,117.23452)"
             d="m 331.42857,252.36218 c 0,33.13709 -50.52787,60 -112.85714,60 -62.32928,0 -112.85714,-26.86291 -112.85714,-60 0,-33.13708 50.52786,-60 112.85714,-60 62.32927,0 112.85714,26.86292 112.85714,60 z"
             sodipodi:ry="60"
             sodipodi:rx="112.85714"
             sodipodi:cy="252.36218"
             sodipodi:cx="218.57143"
             id="path7392"
             style="fill:url(#radialGradient4763);fill-opacity:1;fill-rule:evenodd;stroke:#000000;stroke-width:1;stroke-linecap:butt;stroke-linejoin:miter;stroke-miterlimit:4;stroke-dasharray:none;stroke-dashoffset:1;stroke-opacity:0.54597701;filter:url(#filter17191)"
             sodipodi:type="arc" />
          <path
             transform="matrix(0.8702146,0,0,1.1767767,326.72197,145.94293)"
             d="m 331.42857,252.36218 c 0,33.13709 -50.52787,60 -112.85714,60 -62.32928,0 -112.85714,-26.86291 -112.85714,-60 0,-33.13708 50.52786,-60 112.85714,-60 62.32927,0 112.85714,26.86292 112.85714,60 z"
             sodipodi:ry="60"
             sodipodi:rx="112.85714"
             sodipodi:cy="252.36218"
             sodipodi:cx="218.57143"
             id="path7394"
             style="fill:url(#radialGradient4765);fill-opacity:1;fill-rule:evenodd;stroke:#000000;stroke-width:0.98818851;stroke-linecap:butt;stroke-linejoin:miter;stroke-miterlimit:4;stroke-dasharray:none;stroke-dashoffset:1;stroke-opacity:0.54597701;filter:url(#filter17187)"
             sodipodi:type="arc" />
          <path
             transform="matrix(1,0,0,1.2525381,113.16492,94.256171)"
             d="m 331.42857,252.36218 c 0,33.13709 -50.52787,60 -112.85714,60 -62.32928,0 -112.85714,-26.86291 -112.85714,-60 0,-33.13708 50.52786,-60 112.85714,-60 62.32927,0 112.85714,26.86292 112.85714,60 z"
             sodipodi:ry="60"
             sodipodi:rx="112.85714"
             sodipodi:cy="252.36218"
             sodipodi:cx="218.57143"
             id="path7396"
             style="fill:url(#radialGradient4767);fill-opacity:1;fill-rule:evenodd;stroke:#000000;stroke-width:0.89352053;stroke-linecap:butt;stroke-linejoin:miter;stroke-miterlimit:4;stroke-dasharray:none;stroke-dashoffset:1;stroke-opacity:0.54597701;filter:url(#filter17183)"
             sodipodi:type="arc" />
          <path
             transform="matrix(0.7359538,0,0,1,114.40918,99.530897)"
             d="m 331.42857,252.36218 c 0,33.13709 -50.52787,60 -112.85714,60 -62.32928,0 -112.85714,-26.86291 -112.85714,-60 0,-33.13708 50.52786,-60 112.85714,-60 62.32927,0 112.85714,26.86292 112.85714,60 z"
             sodipodi:ry="60"
             sodipodi:rx="112.85714"
             sodipodi:cy="252.36218"
             sodipodi:cx="218.57143"
             id="path9378"
             style="fill:url(#radialGradient4769);fill-opacity:1;fill-rule:evenodd;stroke:#000000;stroke-width:1.16566765;stroke-linecap:butt;stroke-linejoin:miter;stroke-miterlimit:4;stroke-dasharray:none;stroke-dashoffset:1;stroke-opacity:0.54597701;filter:url(#filter17179)"
             sodipodi:type="arc" />
          <path
             transform="matrix(0.5972176,0,0,1.134687,329.08578,52.409008)"
             d="m 331.42857,252.36218 c 0,33.13709 -50.52787,60 -112.85714,60 -62.32928,0 -112.85714,-26.86291 -112.85714,-60 0,-33.13708 50.52786,-60 112.85714,-60 62.32927,0 112.85714,26.86292 112.85714,60 z"
             sodipodi:ry="60"
             sodipodi:rx="112.85714"
             sodipodi:cy="252.36218"
             sodipodi:cx="218.57143"
             id="path9382"
             style="fill:url(#radialGradient4771);fill-opacity:1;fill-rule:evenodd;stroke:#000000;stroke-width:1.21477449;stroke-linecap:butt;stroke-linejoin:miter;stroke-miterlimit:4;stroke-dasharray:none;stroke-dashoffset:1;stroke-opacity:0.54597701;filter:url(#filter17175)"
             sodipodi:type="arc" />
          <path
             sodipodi:nodetypes="ccccccccc"
             id="path10355"
             d="M 162.63564,426.64437 C 118.89879,397.61579 119.59641,347.06184 199.50621,326.89181 C 232.09705,287.01758 280.50295,285.49552 314.6636,299.36515 C 345.10032,272.7472 382.11603,275.44833 406.84002,296.33469 C 445.13679,251.9667 500.80479,270.81646 520.48218,309.97175 C 612.267,319.10368 644.16489,366.68957 598.51647,403.91594 C 643.93328,457.40064 586.40789,521.56886 495.98598,512.00226 C 452.81954,535.69065 380.70707,544.76817 313.40091,523.11394 C 242.32501,546.17054 124.43422,505.03617 162.63564,426.64437 z "
             style="fill:none;fill-rule:evenodd;stroke:url(#linearGradient4773);stroke-width:2;stroke-linecap:butt;stroke-linejoin:miter;stroke-miterlimit:4;stroke-dasharray:none;stroke-opacity:1;filter:url(#filter32024)" />
        </g>
      </g>
      <text
         id="text3528"
         y="69.491402"
         x="-1202.4951"
         style="font-size:8.04749393px;font-style:normal;font-weight:normal;fill:#000000;fill-opacity:1;stroke:none;stroke-width:1px;stroke-linecap:butt;stroke-linejoin:miter;stroke-opacity:1;font-family:Courier New"
         xml:space="preserve"><tspan
           y="69.491402"
           x="-1202.4951"
           id="tspan3530"
           sodipodi:role="line">Internet</tspan></text>
    </g>
    <rect
       style="fill:#ffffff;fill-opacity:1;stroke:#000000;stroke-width:0.1064994;stroke-miterlimit:4;stroke-dasharray:none;stroke-dashoffset:0;stroke-opacity:1"
       id="rect3526"
       width="51.953583"
       height="13.431421"
       x="-1229.4836"
       y="29.527563" />
    <text
       xml:space="preserve"
       style="font-size:12px;font-style:normal;font-weight:normal;text-align:center;text-anchor:middle;fill:#000000;fill-opacity:1;stroke:none;stroke-width:1px;stroke-linecap:butt;stroke-linejoin:miter;stroke-opacity:1;font-family:Bitstream Vera Sans"
       x="-1203.7919"
       y="36.413525"
       id="text5827"><tspan
         sodipodi:role="line"
         id="tspan5829"
         x="-1203.7919"
         y="36.413525"
         style="font-size:3px;text-align:center;text-anchor:middle">El usuario pide la pagina</tspan><tspan
         sodipodi:role="line"
         x="-1203.7919"
         y="40.163525"
         id="tspan5831"
         style="font-size:3px;text-align:center;text-anchor:middle">http://www.maquina1.net/page1</tspan></text>
    <path
       sodipodi:type="arc"
       style="fill:#afc6e9;fill-opacity:1;stroke:#000000;stroke-width:0.2;stroke-miterlimit:4;stroke-dasharray:none;stroke-dashoffset:0;stroke-opacity:1"
       id="path2555"
       sodipodi:cx="211.58792"
       sodipodi:cy="18.435234"
       sodipodi:rx="4.13202"
       sodipodi:ry="3.8470533"
       d="m 215.71994,18.435234 c 0,2.124669 -1.84997,3.847053 -4.13202,3.847053 -2.28205,0 -4.13202,-1.722384 -4.13202,-3.847053 0,-2.124669 1.84997,-3.847053 4.13202,-3.847053 2.28205,0 4.13202,1.722384 4.13202,3.847053 z"
       transform="translate(-1418.5144,9.5717685)" />
    <path
       style="font-size:12px;font-style:normal;font-weight:normal;fill:#000000;fill-opacity:1;stroke:none;font-family:Bitstream Vera Sans"
       d="m -1206.975,25.966836 c -0.077,0.154626 -0.1911,0.304365 -0.375,0.46875 -0.184,0.164391 -0.4105,0.290693 -0.6563,0.40625 l 0,0.4375 c 0.1367,-0.05045 0.2971,-0.117836 0.4688,-0.21875 0.1717,-0.100909 0.3004,-0.211586 0.4062,-0.3125 l 0,2.8125 0.4375,0 0,-3.59375 -0.2812,0 z"
       id="text5803"
       inkscape:connector-curvature="0" />
  </g>
</svg>
