<?xml version="1.0" encoding="UTF-8" standalone="no"?>
<!-- Created with Inkscape (http://www.inkscape.org/) -->
<svg
   xmlns:dc="http://purl.org/dc/elements/1.1/"
   xmlns:cc="http://web.resource.org/cc/"
   xmlns:rdf="http://www.w3.org/1999/02/22-rdf-syntax-ns#"
   xmlns:svg="http://www.w3.org/2000/svg"
   xmlns="http://www.w3.org/2000/svg"
   xmlns:sodipodi="http://sodipodi.sourceforge.net/DTD/sodipodi-0.dtd"
   xmlns:inkscape="http://www.inkscape.org/namespaces/inkscape"
   width="792.13159"
   height="346.85965"
   id="svg2"
   sodipodi:version="0.32"
   inkscape:version="0.45"
   sodipodi:docbase="/media/USB DISK/libro_sig/LaTeX/Operaciones_geometricas"
   sodipodi:docname="Juntar_capas.svg"
   inkscape:output_extension="org.inkscape.output.svg.inkscape"
   version="1.0"
   sodipodi:modified="true">
  <defs
     id="defs4" />
  <sodipodi:namedview
     id="base"
     pagecolor="#ffffff"
     bordercolor="#666666"
     borderopacity="1.0"
     inkscape:pageopacity="0.0"
     inkscape:pageshadow="2"
     inkscape:zoom="1.1740474"
     inkscape:cx="396.0658"
     inkscape:cy="164.07933"
     inkscape:document-units="px"
     inkscape:current-layer="layer1"
     inkscape:window-width="1016"
     inkscape:window-height="708"
     inkscape:window-x="0"
     inkscape:window-y="0" />
  <metadata
     id="metadata7">
    <rdf:RDF>
      <cc:Work
         rdf:about="">
        <dc:format>image/svg+xml</dc:format>
        <dc:type
           rdf:resource="http://purl.org/dc/dcmitype/StillImage" />
      </cc:Work>
    </rdf:RDF>
  </metadata>
  <g
     inkscape:label="Capa 1"
     inkscape:groupmode="layer"
     id="layer1"
     transform="translate(-113.90652,-47.038909)">
    <g
       id="g6992"
       transform="translate(0,-1.84521)">
      <path
         id="path4038"
         d="M 447.09901,314.41241 C 439.71842,314.46457 431.86514,314.77606 424.03651,314.66241 C 419.79333,314.60081 415.60056,314.41395 411.53651,313.97491 C 409.50449,313.75539 407.48279,313.45712 405.53651,313.09991 C 403.59023,312.7427 401.71349,312.31119 399.88026,311.78741 C 386.89736,308.07801 374.41352,303.54517 361.88026,299.94366 C 358.74695,299.04328 355.62391,298.20083 352.47401,297.44366 C 349.32411,296.68649 346.15838,296.03427 342.97401,295.47491 C 339.78964,294.91555 336.58572,294.43814 333.34901,294.13116 C 330.1123,293.82418 326.84344,293.66241 323.53651,293.66241 C 321.35422,293.66241 319.19095,293.86407 317.06776,294.19366 C 314.94457,294.52325 312.84381,295.0056 310.78651,295.56866 C 308.25168,296.26241 305.8973,297.21461 303.47401,298.09991 L 303.47401,366.78741 L 447.09901,366.78741 L 447.09901,314.41241 z "
         style="opacity:0.5;fill:#00ff00;fill-opacity:1;stroke:#000000;stroke-width:2;stroke-miterlimit:4;stroke-dasharray:none;stroke-opacity:1" />
      <path
         id="path4040"
         d="M 303.47401,243.84991 L 303.47401,298.09991 C 305.8973,297.21461 308.25168,296.26241 310.78651,295.56866 C 312.84381,295.0056 314.94457,294.52325 317.06776,294.19366 C 319.19095,293.86407 321.35422,293.66241 323.53651,293.66241 C 326.84344,293.66241 330.1123,293.82418 333.34901,294.13116 C 336.58572,294.43814 339.78964,294.91555 342.97401,295.47491 C 346.15838,296.03427 349.32411,296.68649 352.47401,297.44366 C 355.62391,298.20083 358.74695,299.04328 361.88026,299.94366 C 374.41352,303.54517 386.89736,308.07801 399.88026,311.78741 C 401.71349,312.31119 403.59023,312.7427 405.53651,313.09991 C 407.48279,313.45712 409.50449,313.75539 411.53651,313.97491 C 415.60056,314.41395 419.79333,314.60081 424.03651,314.66241 C 431.86514,314.77606 439.71842,314.46457 447.09901,314.41241 L 447.09901,243.84991 L 303.47401,243.84991 z "
         style="opacity:0.50099996;fill:#ff0000;fill-opacity:1;stroke:#000000;stroke-width:2;stroke-miterlimit:4;stroke-dasharray:none;stroke-opacity:1" />
      <path
         id="path4030"
         d="M 363.53651,243.84991 C 364.81048,245.74313 366.21435,247.70558 366.88026,249.03741 C 368.6213,252.5195 370.22932,255.55674 371.41151,258.78741 C 372.0026,260.40275 372.48325,262.05005 372.81776,263.84991 C 373.15227,265.64977 373.34901,267.60687 373.34901,269.75616 C 373.34901,271.57642 373.18069,273.12309 372.94276,274.53741 C 372.70483,275.95173 372.3897,277.23048 372.00526,278.47491 C 371.23639,280.96376 370.24915,283.34309 369.44276,286.56866 C 368.91582,288.67641 368.55617,290.56506 368.38026,292.34991 C 368.20435,294.13476 368.20987,295.82371 368.47401,297.44366 C 368.73815,299.06361 369.27454,300.64311 370.06776,302.25616 C 370.86098,303.86921 371.93769,305.49201 373.34901,307.25616 C 374.43866,308.61822 375.41521,310.33042 376.31776,312.22491 C 377.22031,314.1194 378.04524,316.21458 378.84901,318.34991 C 379.65278,320.48524 380.43072,322.67157 381.22401,324.75616 C 382.0173,326.84075 382.82163,328.8264 383.69276,330.56866 C 384.45359,332.09032 384.99499,333.66886 385.38026,335.31866 C 385.76553,336.96846 385.99698,338.66607 386.13026,340.41241 C 386.39682,343.90509 386.28651,347.56685 386.28651,351.25616 C 386.28651,352.54757 386.16424,353.68186 385.97401,354.66241 C 385.78378,355.64296 385.50393,356.47988 385.16151,357.22491 C 384.81909,357.96994 384.4306,358.60882 383.97401,359.19366 C 383.51742,359.7785 383.00674,360.31867 382.47401,360.81866 C 381.40855,361.81865 380.24085,362.70603 379.09901,363.81866 C 378.52809,364.37497 377.94448,364.99618 377.41151,365.69366 C 377.1664,366.01443 376.95523,366.42515 376.72401,366.78741 L 447.09901,366.78741 L 447.09901,243.84991 L 363.53651,243.84991 z "
         style="opacity:0.5;fill:#0000ff;fill-opacity:1;stroke:#000000;stroke-width:2;stroke-miterlimit:4;stroke-dasharray:none;stroke-opacity:1" />
      <path
         id="path4028"
         d="M 363.53651,243.84991 L 303.47401,243.84991 L 303.47401,366.78741 L 376.72401,366.78741 C 376.95523,366.42515 377.1664,366.01443 377.41151,365.69366 C 377.94448,364.99618 378.52809,364.37497 379.09901,363.81866 C 380.24085,362.70603 381.40855,361.81865 382.47401,360.81866 C 383.00674,360.31867 383.51742,359.7785 383.97401,359.19366 C 384.4306,358.60882 384.81909,357.96994 385.16151,357.22491 C 385.50393,356.47988 385.78378,355.64296 385.97401,354.66241 C 386.16424,353.68186 386.28651,352.54757 386.28651,351.25616 C 386.28651,347.56685 386.39682,343.90509 386.13026,340.41241 C 385.99698,338.66607 385.76553,336.96846 385.38026,335.31866 C 384.99499,333.66886 384.45359,332.09032 383.69276,330.56866 C 382.82163,328.8264 382.0173,326.84075 381.22401,324.75616 C 380.43072,322.67157 379.65278,320.48524 378.84901,318.34991 C 378.04524,316.21458 377.22031,314.1194 376.31776,312.22491 C 375.41521,310.33042 374.43866,308.61822 373.34901,307.25616 C 371.93769,305.49201 370.86098,303.86921 370.06776,302.25616 C 369.27454,300.64311 368.73815,299.06361 368.47401,297.44366 C 368.20987,295.82371 368.20435,294.13476 368.38026,292.34991 C 368.55617,290.56506 368.91582,288.67641 369.44276,286.56866 C 370.24915,283.34309 371.23639,280.96376 372.00526,278.47491 C 372.3897,277.23048 372.70483,275.95173 372.94276,274.53741 C 373.18069,273.12309 373.34901,271.57642 373.34901,269.75616 C 373.34901,267.60687 373.15227,265.64977 372.81776,263.84991 C 372.48325,262.05005 372.0026,260.40275 371.41151,258.78741 C 370.22932,255.55674 368.6213,252.5195 366.88026,249.03741 C 366.21435,247.70558 364.81048,245.74313 363.53651,243.84991 z "
         style="opacity:0.5;fill:#ffff00;fill-opacity:1;stroke:#000000;stroke-width:2;stroke-miterlimit:4;stroke-dasharray:none;stroke-opacity:1" />
    </g>
    <path
       style="fill:none;fill-rule:evenodd;stroke:#000000;stroke-width:1;stroke-linecap:butt;stroke-linejoin:miter;stroke-miterlimit:4;stroke-dasharray:1, 3;stroke-dashoffset:0;stroke-opacity:1"
       d="M 129.0105,210.59151 C 889.34901,210.59151 886.60411,210.59151 886.60411,210.59151"
       id="path3258" />
    <rect
       style="opacity:0.26086958;fill:#64bf4d;fill-opacity:1;stroke:#000000;stroke-width:1.69606972;stroke-miterlimit:4;stroke-dasharray:none;stroke-dashoffset:0;stroke-opacity:1"
       id="rect3262"
       width="249.35579"
       height="17.423468"
       x="529.90906"
       y="253.81149" />
    <text
       xml:space="preserve"
       style="font-size:12px;font-style:normal;font-weight:normal;fill:#000000;fill-opacity:1;stroke:none;stroke-width:1px;stroke-linecap:butt;stroke-linejoin:miter;stroke-opacity:1;font-family:Bitstream Vera Sans"
       x="537.65894"
       y="267.43271"
       id="text3264"><tspan
         sodipodi:role="line"
         id="tspan3266"
         x="537.65894"
         y="267.43271">ID       Tipo Suelo      ID       Uso Suelo</tspan></text>
    <text
       xml:space="preserve"
       style="font-size:12px;font-style:normal;font-weight:normal;fill:#000000;fill-opacity:1;stroke:none;stroke-width:1px;stroke-linecap:butt;stroke-linejoin:miter;stroke-opacity:1;font-family:Bitstream Vera Sans"
       x="536.76202"
       y="293.62668"
       id="text3268"><tspan
         sodipodi:role="line"
         id="tspan3270"
         x="536.76202"
         y="293.62668">1        Cambisol        1         Pastizal </tspan></text>
    <text
       xml:space="preserve"
       style="font-size:12px;font-style:normal;font-weight:normal;fill:#000000;fill-opacity:1;stroke:none;stroke-width:1px;stroke-linecap:butt;stroke-linejoin:miter;stroke-opacity:1;font-family:Bitstream Vera Sans"
       x="113.47293"
       y="109.94502"
       id="text3272"><tspan
         sodipodi:role="line"
         id="tspan3274"
         x="113.47293"
         y="109.94502">a)</tspan></text>
    <text
       xml:space="preserve"
       style="font-size:12px;font-style:normal;font-weight:normal;fill:#000000;fill-opacity:1;stroke:none;stroke-width:1px;stroke-linecap:butt;stroke-linejoin:miter;stroke-opacity:1;font-family:Bitstream Vera Sans"
       x="113.12137"
       y="335.02719"
       id="text3276"><tspan
         sodipodi:role="line"
         id="tspan3278"
         x="113.12137"
         y="335.02719">b)</tspan></text>
    <path
       style="fill:#ffff00;fill-opacity:1;stroke:#000000;stroke-width:2;stroke-miterlimit:4;stroke-dasharray:none;stroke-opacity:1"
       d="M 220.56277,57.101409 L 160.50027,57.101409 L 160.50027,180.03891 L 233.75027,180.03891 C 233.98149,179.67665 234.19266,179.26593 234.43777,178.94516 C 234.97074,178.24768 235.55435,177.62647 236.12527,177.07016 C 237.26711,175.95753 238.43481,175.07015 239.50027,174.07016 C 240.033,173.57017 240.54368,173.03 241.00027,172.44516 C 241.45686,171.86032 241.84535,171.22144 242.18777,170.47641 C 242.53019,169.73138 242.81004,168.89446 243.00027,167.91391 C 243.1905,166.93336 243.31277,165.79907 243.31277,164.50766 C 243.31277,160.81835 243.42308,157.15659 243.15652,153.66391 C 243.02324,151.91757 242.79179,150.21996 242.40652,148.57016 C 242.02125,146.92036 241.47985,145.34182 240.71902,143.82016 C 239.84789,142.0779 239.04356,140.09225 238.25027,138.00766 C 237.45698,135.92307 236.67904,133.73674 235.87527,131.60141 C 235.0715,129.46608 234.24657,127.3709 233.34402,125.47641 C 232.44147,123.58192 231.46492,121.86972 230.37527,120.50766 C 228.96395,118.74351 227.88724,117.12071 227.09402,115.50766 C 226.3008,113.89461 225.76441,112.31511 225.50027,110.69516 C 225.23613,109.07521 225.23061,107.38626 225.40652,105.60141 C 225.58243,103.81656 225.94208,101.92791 226.46902,99.82016 C 227.27541,96.59459 228.26265,94.21526 229.03152,91.72641 C 229.41596,90.48198 229.73109,89.20323 229.96902,87.788909 C 230.20695,86.374591 230.37527,84.827916 230.37527,83.007659 C 230.37527,80.858368 230.17853,78.901265 229.84402,77.101409 C 229.50951,75.301553 229.02886,73.654245 228.43777,72.038909 C 227.25558,68.808236 225.64756,65.771001 223.90652,62.288909 C 223.24061,60.957082 221.83674,58.994628 220.56277,57.101409 z "
       id="path4015" />
    <path
       style="fill:#0000ff;fill-opacity:1;stroke:#000000;stroke-width:2;stroke-miterlimit:4;stroke-dasharray:none;stroke-opacity:1"
       d="M 220.56277,57.101409 C 221.83674,58.994628 223.24061,60.957082 223.90652,62.288909 C 225.64756,65.771001 227.25558,68.808236 228.43777,72.038909 C 229.02886,73.654245 229.50951,75.301553 229.84402,77.101409 C 230.17853,78.901265 230.37527,80.858368 230.37527,83.007659 C 230.37527,84.827916 230.20695,86.374591 229.96902,87.788909 C 229.73109,89.20323 229.41596,90.48198 229.03152,91.72641 C 228.26265,94.21526 227.27541,96.59459 226.46902,99.82016 C 225.94208,101.92791 225.58243,103.81656 225.40652,105.60141 C 225.23061,107.38626 225.23613,109.07521 225.50027,110.69516 C 225.76441,112.31511 226.3008,113.89461 227.09402,115.50766 C 227.88724,117.12071 228.96395,118.74351 230.37527,120.50766 C 231.46492,121.86972 232.44147,123.58192 233.34402,125.47641 C 234.24657,127.3709 235.0715,129.46608 235.87527,131.60141 C 236.67904,133.73674 237.45698,135.92307 238.25027,138.00766 C 239.04356,140.09225 239.84789,142.0779 240.71902,143.82016 C 241.47985,145.34182 242.02125,146.92036 242.40652,148.57016 C 242.79179,150.21996 243.02324,151.91757 243.15652,153.66391 C 243.42308,157.15659 243.31277,160.81835 243.31277,164.50766 C 243.31277,165.79907 243.1905,166.93336 243.00027,167.91391 C 242.81004,168.89446 242.53019,169.73138 242.18777,170.47641 C 241.84535,171.22144 241.45686,171.86032 241.00027,172.44516 C 240.54368,173.03 240.033,173.57017 239.50027,174.07016 C 238.43481,175.07015 237.26711,175.95753 236.12527,177.07016 C 235.55435,177.62647 234.97074,178.24768 234.43777,178.94516 C 234.19266,179.26593 233.98149,179.67665 233.75027,180.03891 L 304.12527,180.03891 L 304.12527,57.101409 L 220.56277,57.101409 z "
       id="rect3031" />
    <path
       style="fill:#00ff00;fill-opacity:1;stroke:#000000;stroke-width:2;stroke-miterlimit:4;stroke-dasharray:none;stroke-opacity:1"
       d="M 705.06277,128.78891 C 697.68218,128.84107 689.8289,129.15256 682.00027,129.03891 C 677.75709,128.97731 673.56432,128.79044 669.50027,128.35141 C 667.46825,128.13189 665.44655,127.83362 663.50027,127.47641 C 661.55399,127.1192 659.67725,126.68769 657.84402,126.16391 C 644.86112,122.45451 632.37728,117.92167 619.84402,114.32016 C 616.71071,113.41978 613.58767,112.57732 610.43777,111.82016 C 607.28787,111.06299 604.12214,110.41077 600.93777,109.85141 C 597.7534,109.29205 594.54948,108.81464 591.31277,108.50766 C 588.07606,108.20068 584.8072,108.03891 581.50027,108.03891 C 579.31798,108.03891 577.15471,108.24057 575.03152,108.57016 C 572.90833,108.89975 570.80757,109.3821 568.75027,109.94516 C 566.21544,110.63891 563.86106,111.59111 561.43777,112.47641 L 561.43777,181.16391 L 705.06277,181.16391 L 705.06277,128.78891 z "
       id="path4020" />
    <path
       style="fill:#ff0000;fill-opacity:1;stroke:#000000;stroke-width:2;stroke-miterlimit:4;stroke-dasharray:none;stroke-opacity:1"
       d="M 561.43777,58.226409 L 561.43777,112.47641 C 563.86106,111.59111 566.21544,110.63891 568.75027,109.94516 C 570.80757,109.3821 572.90833,108.89975 575.03152,108.57016 C 577.15471,108.24057 579.31798,108.03891 581.50027,108.03891 C 584.8072,108.03891 588.07606,108.20068 591.31277,108.50766 C 594.54948,108.81464 597.7534,109.29205 600.93777,109.85141 C 604.12214,110.41077 607.28787,111.06299 610.43777,111.82016 C 613.58767,112.57732 616.71071,113.41978 619.84402,114.32016 C 632.37728,117.92167 644.86112,122.45451 657.84402,126.16391 C 659.67725,126.68769 661.55399,127.1192 663.50027,127.47641 C 665.44655,127.83362 667.46825,128.13189 669.50027,128.35141 C 673.56432,128.79044 677.75709,128.97731 682.00027,129.03891 C 689.8289,129.15256 697.68218,128.84107 705.06277,128.78891 L 705.06277,58.226409 L 561.43777,58.226409 z "
       id="rect4009" />
    <path
       style="fill:none;fill-opacity:1;stroke:#000000;stroke-width:2;stroke-miterlimit:4;stroke-dasharray:none;stroke-opacity:1"
       d="M 447.09901,312.5672 C 439.71842,312.61936 431.86514,312.93085 424.03651,312.8172 C 419.79333,312.7556 415.60056,312.56873 411.53651,312.1297 C 409.50449,311.91018 407.48279,311.61191 405.53651,311.2547 C 403.59023,310.89749 401.71349,310.46598 399.88026,309.9422 C 386.89736,306.2328 374.41352,301.69996 361.88026,298.09845 C 358.74695,297.19807 355.62391,296.35561 352.47401,295.59845 C 349.32411,294.84128 346.15838,294.18906 342.97401,293.6297 C 339.78964,293.07034 336.58572,292.59293 333.34901,292.28595 C 330.1123,291.97897 326.84344,291.8172 323.53651,291.8172 C 321.35422,291.8172 319.19095,292.01886 317.06776,292.34845 C 314.94457,292.67804 312.84381,293.16039 310.78651,293.72345 C 308.25168,294.4172 305.8973,295.3694 303.47401,296.2547 L 303.47401,364.9422 L 447.09901,364.9422 L 447.09901,312.5672 z "
       id="path6990" />
    <path
       style="fill:none;fill-opacity:1;stroke:#000000;stroke-width:2;stroke-miterlimit:4;stroke-dasharray:none;stroke-opacity:1"
       d="M 303.47352,241.68168 L 303.47352,295.93168 C 305.89681,295.04638 308.25119,294.09418 310.78602,293.40043 C 312.84332,292.83737 314.94408,292.35502 317.06727,292.02543 C 319.19046,291.69584 321.35373,291.49418 323.53602,291.49418 C 326.84295,291.49418 330.11181,291.65595 333.34852,291.96293 C 336.58523,292.26991 339.78915,292.74732 342.97352,293.30668 C 346.15789,293.86604 349.32362,294.51826 352.47352,295.27543 C 355.62342,296.03259 358.74646,296.87505 361.87977,297.77543 C 374.41303,301.37694 386.89687,305.90978 399.87977,309.61918 C 401.713,310.14296 403.58974,310.57447 405.53602,310.93168 C 407.4823,311.28889 409.504,311.58716 411.53602,311.80668 C 415.60007,312.24571 419.79284,312.43258 424.03602,312.49418 C 431.86465,312.60783 439.71793,312.29634 447.09852,312.24418 L 447.09852,241.68168 L 303.47352,241.68168 z "
       id="path6998" />
    <g
       id="g8001"
       transform="translate(0,-18)">
      <rect
         y="83.645187"
         x="333.49411"
         height="17.841827"
         width="138.19432"
         id="rect3214"
         style="opacity:0.26086958;fill:#64bf4d;fill-opacity:1;stroke:#000000;stroke-width:1.27770758;stroke-miterlimit:4;stroke-dasharray:none;stroke-dashoffset:0;stroke-opacity:1" />
      <text
         id="text3216"
         y="97.475594"
         x="341.45319"
         style="font-size:12px;font-style:normal;font-weight:normal;fill:#000000;fill-opacity:1;stroke:none;stroke-width:1px;stroke-linecap:butt;stroke-linejoin:miter;stroke-opacity:1;font-family:Bitstream Vera Sans"
         xml:space="preserve"><tspan
           y="97.475594"
           x="341.45319"
           id="tspan3218"
           sodipodi:role="line">ID         Tipo Suelo         </tspan></text>
      <text
         id="text3220"
         y="123.66954"
         x="341.91351"
         style="font-size:12px;font-style:normal;font-weight:normal;fill:#000000;fill-opacity:1;stroke:none;stroke-width:1px;stroke-linecap:butt;stroke-linejoin:miter;stroke-opacity:1;font-family:Bitstream Vera Sans"
         xml:space="preserve"><tspan
           y="123.66954"
           x="341.91351"
           id="tspan3222"
           sodipodi:role="line">1           Cambisol </tspan></text>
      <text
         xml:space="preserve"
         style="font-size:12px;font-style:normal;font-weight:normal;fill:#000000;fill-opacity:1;stroke:none;stroke-width:1px;stroke-linecap:butt;stroke-linejoin:miter;stroke-opacity:1;font-family:Bitstream Vera Sans"
         x="341.91351"
         y="143.65991"
         id="text7969"><tspan
           sodipodi:role="line"
           id="tspan7971"
           x="341.91351"
           y="143.65991">2           Luvisol </tspan></text>
    </g>
    <g
       id="g7992"
       transform="translate(0,-20.921699)">
      <rect
         y="86.566887"
         x="733.80725"
         height="17.841827"
         width="138.19432"
         id="rect7978"
         style="opacity:0.26086958;fill:#64bf4d;fill-opacity:1;stroke:#000000;stroke-width:1.27770758;stroke-miterlimit:4;stroke-dasharray:none;stroke-dashoffset:0;stroke-opacity:1" />
      <text
         id="text7980"
         y="100.39729"
         x="741.76636"
         style="font-size:12px;font-style:normal;font-weight:normal;fill:#000000;fill-opacity:1;stroke:none;stroke-width:1px;stroke-linecap:butt;stroke-linejoin:miter;stroke-opacity:1;font-family:Bitstream Vera Sans"
         xml:space="preserve"><tspan
           y="100.39729"
           x="741.76636"
           id="tspan7982"
           sodipodi:role="line">ID         Uso Suelo         </tspan></text>
      <text
         id="text7984"
         y="126.59125"
         x="742.22668"
         style="font-size:12px;font-style:normal;font-weight:normal;fill:#000000;fill-opacity:1;stroke:none;stroke-width:1px;stroke-linecap:butt;stroke-linejoin:miter;stroke-opacity:1;font-family:Bitstream Vera Sans"
         xml:space="preserve"><tspan
           y="126.59125"
           x="742.22668"
           id="tspan7986"
           sodipodi:role="line">1           Pastizal </tspan></text>
      <text
         xml:space="preserve"
         style="font-size:12px;font-style:normal;font-weight:normal;fill:#000000;fill-opacity:1;stroke:none;stroke-width:1px;stroke-linecap:butt;stroke-linejoin:miter;stroke-opacity:1;font-family:Bitstream Vera Sans"
         x="742.22668"
         y="146.5816"
         id="text7988"><tspan
           sodipodi:role="line"
           id="tspan7990"
           x="742.22668"
           y="146.5816">2           Matorral </tspan></text>
    </g>
    <text
       xml:space="preserve"
       style="font-size:12px;font-style:normal;font-weight:normal;fill:#000000;fill-opacity:1;stroke:none;stroke-width:1px;stroke-linecap:butt;stroke-linejoin:miter;stroke-opacity:1;font-family:Bitstream Vera Sans"
       x="536.76202"
       y="313.95062"
       id="text8015"><tspan
         sodipodi:role="line"
         id="tspan8017"
         x="536.76202"
         y="313.95062">1        Cambisol        2         Matorral </tspan></text>
    <text
       xml:space="preserve"
       style="font-size:12px;font-style:normal;font-weight:normal;fill:#000000;fill-opacity:1;stroke:none;stroke-width:1px;stroke-linecap:butt;stroke-linejoin:miter;stroke-opacity:1;font-family:Bitstream Vera Sans"
       x="536.76202"
       y="334.27457"
       id="text8019"><tspan
         sodipodi:role="line"
         id="tspan8021"
         x="536.76202"
         y="334.27457">2        Luvisol            1         Pastizal </tspan></text>
    <text
       xml:space="preserve"
       style="font-size:12px;font-style:normal;font-weight:normal;fill:#000000;fill-opacity:1;stroke:none;stroke-width:1px;stroke-linecap:butt;stroke-linejoin:miter;stroke-opacity:1;font-family:Bitstream Vera Sans"
       x="536.76202"
       y="354.59851"
       id="text8023"><tspan
         sodipodi:role="line"
         id="tspan8025"
         x="536.76202"
         y="354.59851">2        Luvisol            2         Matorral </tspan></text>
  </g>
</svg>
